<?xml version="1.0" encoding="UTF-8" standalone="no"?>
<svg
   xmlns:dc="http://purl.org/dc/elements/1.1/"
   xmlns:cc="http://creativecommons.org/ns#"
   xmlns:rdf="http://www.w3.org/1999/02/22-rdf-syntax-ns#"
   xmlns:svg="http://www.w3.org/2000/svg"
   xmlns="http://www.w3.org/2000/svg"
   viewBox="0 0 298.17499 144.72501"
   height="144.72501"
   width="298.17499"
   xml:space="preserve"
   version="1.1"
   id="svg2"><metadata
     id="metadata8"><rdf:RDF><cc:Work
         rdf:about=""><dc:format>image/svg+xml</dc:format><dc:type
           rdf:resource="http://purl.org/dc/dcmitype/StillImage" /></cc:Work></rdf:RDF></metadata><defs
     id="defs6" /><g
     transform="matrix(1.25,0,0,-1.25,0,144.725)"
     id="g10"><g
       transform="scale(0.1,0.1)"
       id="g12"><path
         id="path14"
         style="fill:#2252ab;fill-opacity:1;fill-rule:evenodd;stroke:none"
         d="m 0,1.44922 1154.88,0 0,1154.87078 L 0,1156.32 0,1.44922" /><path
         id="path16"
         style="fill:#2252ab;fill-opacity:1;fill-rule:evenodd;stroke:none"
         d="m 2350.81,1157.76 -1122.48,0 0,-1157.76 1157.03,0 0,1157.76 -34.55,0 0,0" /><path
         id="path18"
         style="fill:#ffffff;fill-opacity:1;fill-rule:evenodd;stroke:none"
         d="m 2316.25,1087.93 c 0,-62.65 0,-955.45 0,-1018.0902 -63.36,0 -956.17,0 -1018.81,0 0,62.6402 0,955.4402 0,1018.0902 62.64,0 955.45,0 1018.81,0 l 0,0" /><path
         id="path20"
         style="fill:#ffffff;fill-opacity:1;fill-rule:evenodd;stroke:none"
         d="m 624.238,342.004 c -12.242,15.84 -18.718,36.004 -18.718,60.476 0,25.208 5.757,45.364 18,60.489 13.675,15.84 33.121,24.472 57.597,24.472 l 2.16,0 0,41.77 -2.16,0 c -38.883,0 -69.121,-12.246 -90,-36.008 -17.996,-22.312 -28.082,-52.558 -28.082,-90.723 0,-37.429 10.805,-67.675 30.965,-90.71 20.879,-24.485 51.117,-36.719 87.84,-36.719 l 2.16,0 0,42.48 -2.16,0 c -24.481,0 -43.918,7.918 -57.602,24.473 l 0,0 z m -149.039,0 c -12.965,15.84 -19.441,36.004 -19.441,60.476 0,25.208 6.476,45.364 18.004,60.489 13.676,15.84 33.117,24.472 58.316,24.472 l 1.442,0 0,41.77 -1.442,0 c -39.598,0 -69.844,-12.246 -90,-36.008 C 423.359,470.891 414,440.645 414,402.48 c 0,-37.429 10.078,-67.675 30.238,-90.71 21.602,-24.485 51.117,-36.719 88.559,-36.719 l 1.441,0 0,42.48 -1.441,0 c -25.199,0 -43.918,7.918 -57.598,24.473 l 0,0 z m 137.52,410.394 c 0,-5.761 0,-117.351 0,-117.351 l 44.64,0 0,242.637 -44.64,0 c 0,0 0,-79.2 0,-84.961 -5.039,0 -24.481,0 -24.481,0 -10.078,0 -17.281,2.879 -22.32,7.195 -3.598,2.883 -5.039,7.207 -5.039,12.961 l 0,64.805 -44.641,0 0,-69.121 c 0,-16.563 6.481,-29.524 18.723,-40.325 12.234,-10.8 27.359,-15.84 44.641,-15.84 0,0 28.078,0 33.117,0 l 0,0 z m 426.961,-217.437 -2.88,-2.879 c 0,0 -83.523,-87.121 -89.28,-93.594 0,8.641 0,84.961 0,84.961 l -39.598,0 0,-241.203 39.598,0 c 0,0 0,97.922 0,99.356 0.718,0.722 50.402,54.003 56.16,59.765 0.72,-8.64 5.76,-159.121 5.76,-159.121 l 39.6,0 -9.36,252.715 0,0 z m -292.321,100.086 44.637,0 c 0,0 0,196.551 0,202.312 5.039,0 37.442,0 37.442,0 l 0,40.325 -118.797,0 0,-40.325 c 0,0 31.679,0 36.718,0 0,-5.761 0,-202.312 0,-202.312 l 0,0 z M 850.316,532.082 c 0,0 -82.796,-87.121 -89.277,-93.594 0,8.641 0,84.961 0,84.961 l -38.883,0 0,-241.203 38.883,0 c 0,0 0,97.922 0,99.356 0.719,0.722 51.117,54.003 56.883,59.765 0,-8.64 5.754,-159.121 5.754,-159.121 l 39.601,0 -10.078,252.715 -2.883,-2.879 0,0 z m 80.641,305.277 c 3.606,0 15.84,0 15.84,0 11.523,0 19.441,-3.593 24.48,-10.8 3.602,-5.762 6.481,-17.278 7.922,-33.114 l -49.683,0 c 0,5.039 0.722,38.875 1.441,43.914 l 0,0 z m -2.156,-84.238 c 5.039,0 51.117,0 55.437,0 0.723,-5.039 12.957,-118.074 12.957,-118.074 l 44.645,0 -20.16,177.117 c 0,23.035 -7.2,41.035 -21.6,51.836 -11.521,9.363 -26.642,13.684 -46.08,13.684 l -66.242,0 -7.918,-242.637 44.637,0 c 0,0 4.324,113.035 4.324,118.074 l 0,0 z m -778.321,84.238 55.438,0 c 0,-5.761 0,-202.312 0,-202.312 l 44.641,0 0,242.637 -144.719,0 0,-242.637 44.64,0 c 0,0 0,196.551 0,202.312 l 0,0 z m 20.875,-445.668 c -2.878,-5.761 -6.476,-9.367 -10.796,-9.367 -4.321,0 -7.922,2.883 -10.797,8.645 -2.883,5.761 -4.324,14.394 -4.324,25.195 0,0 0,67.684 0,71.277 0.718,0 1.441,0 1.441,0 9.359,0 16.559,-5.039 21.598,-15.839 5.761,-10.801 7.918,-28.075 7.918,-51.114 0,-12.246 -1.434,-21.601 -5.04,-28.797 l 0,0 z m -24.476,131.758 -41.039,0 0,-241.203 39.598,0 c 0,0 0,63.359 0,70.559 7.199,-7.2 15.839,-10.801 25.203,-10.801 12.957,0 23.757,6.484 32.394,20.164 9.363,15.84 14.403,38.879 14.403,68.398 0,20.879 -3.598,38.879 -11.52,54.719 -11.52,25.203 -31.68,38.164 -59.039,38.164 l 0,0 z m 265.68,170.629 c -5.762,-15.84 -13.68,-23.035 -25.2,-23.035 -10.078,0 -18,7.918 -23.761,23.758 -6.481,16.562 -9.36,37.441 -9.36,62.637 0,25.925 2.879,46.804 8.645,62.648 5.754,15.113 13.676,23.035 24.476,23.035 12.243,0 20.879,-7.922 26.641,-23.035 5.039,-14.406 7.918,-35.285 7.918,-61.926 0,-25.918 -2.879,-47.519 -9.359,-64.082 l 0,0 z m 34.558,-27.351 c 12.961,23.035 20.164,53.992 20.164,91.433 0,36.719 -7.203,67.688 -20.886,90.723 -13.676,23.039 -33.836,34.562 -59.036,34.562 -23.761,0 -42.48,-11.523 -56.164,-35.285 -12.957,-23.035 -19.437,-53.281 -19.437,-90.722 0,-38.157 5.762,-69.122 18.722,-92.157 12.958,-23.761 32.403,-35.285 56.879,-35.285 25.2,0 45.36,12.246 59.758,36.731 l 0,0 z M 335.52,340.566 c -5.758,-15.839 -12.961,-23.757 -23.04,-23.757 -9.359,0 -17.281,7.918 -22.324,23.757 -5.039,17.278 -7.922,38.157 -7.922,63.36 0,25.918 2.883,47.519 7.922,63.359 5.043,15.117 12.965,23.039 22.324,23.039 10.797,0 18.715,-7.922 23.758,-23.761 5.039,-13.68 7.2,-35.274 7.2,-61.915 0,-25.925 -2.879,-47.519 -7.918,-64.082 l 0,0 z m 29.519,154.082 c -12.961,23.04 -30.238,34.563 -52.559,34.563 -20.882,0 -38.164,-11.523 -49.683,-34.563 -12.238,-23.046 -17.996,-53.281 -17.996,-90 0,-38.886 5.758,-69.843 17.277,-92.168 11.52,-23.035 28.078,-34.55 50.402,-34.55 22.321,0 40.317,12.238 53.278,35.996 11.523,23.039 17.277,53.281 17.277,90.722 0,36.719 -5.754,67.676 -17.996,90 l 0,0" /><path
         id="path22"
         style="fill:#2252ab;fill-opacity:1;fill-rule:evenodd;stroke:none"
         d="m 1578.96,783.363 c 8.64,-19.441 23.04,-38.883 61.2,-64.8 8.64,-5.762 18,-18 10.8,-35.286 -7.2,-17.273 -20.88,-41.035 -12.96,-50.398 7.92,-10.078 36.72,-14.395 60.48,-5.039 0,0 5.04,-15.117 13.68,-24.477 0,0 -4.32,-7.918 -17.99,-4.324 0,0 5.03,-12.234 -1.45,-25.199 0,0 -15.84,2.89 -22.31,17.277 0,0 -6.49,-11.512 -19.45,-15.109 0,0 -10.08,5.035 -7.92,25.914 0,0 -7.92,-18.723 -30.96,-21.602 0,0 -13.68,17.285 3.6,40.321 0,0 -12.24,-11.524 -35.27,-6.485 0,0 -3.61,12.246 17.27,28.086 0,0 -23.76,1.438 -32.4,20.879 0,0 10.08,12.238 33.84,9.356 0,0 -22.32,5.05 -27.36,32.402 0,0 16.57,10.078 41.76,-6.473 0,0 -4.32,8.629 -15.12,17.274 -10.8,8.64 -23.76,32.402 -19.44,67.683 l 0,0" /><path
         id="path24"
         style="fill:#2252ab;fill-opacity:1;fill-rule:evenodd;stroke:none"
         d="m 1673.28,511.203 c -3.6,4.324 -5.76,9.363 -7.92,13.68 4.32,-33.113 5.76,-55.438 23.04,-76.317 0,0 10.8,14.403 4.32,48.965 -2.88,0.711 -6.47,2.157 -10.08,4.317 0,0 4.32,-14.407 2.16,-28.078 0,0 -6.47,4.316 -11.52,37.433 l 0,0" /><path
         id="path26"
         style="fill:#2252ab;fill-opacity:1;fill-rule:evenodd;stroke:none"
         d="m 1643.04,514.805 c -2.16,2.16 -6.48,7.922 -8.64,12.238 -1.44,-19.434 -6.48,-69.113 10.08,-84.961 0,0 11.52,8.641 15.84,81.367 -2.16,-3.605 -6.48,-7.922 -8.64,-10.801 0,0 2.89,-23.039 -5.76,-39.601 0,0 -8.64,6.476 -2.88,41.758 l 0,0" /><path
         id="path28"
         style="fill:#2252ab;fill-opacity:1;fill-rule:evenodd;stroke:none"
         d="m 1602.72,476.641 c 14.4,16.562 18.72,66.964 18.72,66.964 1.45,1.446 3.6,2.879 5.76,4.325 0.72,0.715 1.44,1.437 2.16,2.16 0,-1.445 0,-3.606 0,-5.762 -2.16,-30.246 -4.32,-61.926 -13.68,-77.043 -9.36,-15.84 -26.64,-23.758 -26.64,-23.758 -15.84,28.797 3.6,66.961 19.44,93.602 2.16,0.715 4.32,2.16 6.49,2.871 -5.77,-20.156 -16.57,-44.637 -12.25,-63.359 l 0,0" /><path
         id="path30"
         style="fill:#2252ab;fill-opacity:1;fill-rule:evenodd;stroke:none"
         d="m 1563.12,564.484 c 0,-3.593 0,-6.476 0.72,-7.921 0,0 0.73,-0.711 0.73,-1.434 -13.69,-13.684 -23.05,-25.918 -43.21,-54.004 -20.16,-27.355 -51.84,-28.801 -51.84,-28.801 2.88,22.324 9.36,40.324 25.92,59.758 17.28,18.719 38.88,36.004 54.72,48.238 4.32,-2.164 9.36,-3.59 16.56,-2.886 0,0 0.72,0.722 1.44,0.722 -2.16,-2.871 -3.59,-5.761 -4.32,-8.633 -12.24,-6.476 -46.8,-24.472 -61.2,-53.281 0,0 22.33,7.207 60.48,48.242 l 0,0" /><path
         id="path32"
         style="fill:#2252ab;fill-opacity:1;fill-rule:evenodd;stroke:none"
         d="m 1537.92,591.844 1.44,2.879 c 0,0.722 0.72,1.433 1.45,2.16 -12.97,-5.039 -59.77,-23.043 -74.16,-30.242 -15.13,-7.918 -36.73,-25.918 -48.97,-61.192 0,0 31.68,-2.879 57.6,18 25.2,21.602 55.44,51.114 68.4,61.196 -1.44,0.714 -2.16,2.16 -2.87,2.882 0,0 -35.29,-30.964 -72.01,-43.922 0,0 7.92,14.403 22.32,24.481 18,12.957 30.96,16.559 46.8,23.758 l 0,0" /><path
         id="path34"
         style="fill:#2252ab;fill-opacity:1;fill-rule:evenodd;stroke:none"
         d="m 1511.28,613.445 c 0.72,0.711 1.44,2.157 1.44,3.59 -15.12,-3.59 -53.28,-7.918 -70.56,-12.957 -16.56,-5.762 -47.52,-18 -65.51,-52.555 0,0 26.63,-8.64 77.03,15.118 51.12,23.757 66.96,28.804 76.32,31.675 -7.92,0.723 -12.96,2.879 -15.83,5.047 C 1494,594 1466.65,583.199 1440,582.477 c 0,0 12.96,9.367 27.36,15.128 15.13,6.473 31.68,12.235 43.92,15.84 l 0,0" /><path
         id="path36"
         style="fill:#2252ab;fill-opacity:1;fill-rule:evenodd;stroke:none"
         d="m 1512.72,638.641 c 5.04,-2.883 8.64,-3.594 15.12,-4.321 -3.6,-2.156 -6.48,-5.039 -10.08,-9.363 -17.28,-5.039 -48.24,-10.801 -97.92,-14.394 -50.4,-3.602 -77.04,5.761 -77.04,5.761 17.28,10.801 45.36,21.602 64.08,25.196 18.72,3.605 68.4,3.605 90,6.484 0,-0.723 2.88,-2.879 7.2,-5.039 -18,-2.168 -56.88,-3.602 -77.04,-13.684 0,0 36.72,-5.039 85.68,9.36 l 0,0" /><path
         id="path38"
         style="fill:#2252ab;fill-opacity:1;fill-rule:evenodd;stroke:none"
         d="m 1509.12,667.438 c 2.16,1.445 5.76,2.882 9.36,4.328 -25.92,7.195 -60.48,20.156 -113.04,23.035 -38.88,2.883 -66.24,0.722 -80.64,-2.879 0,0 35.28,-25.195 74.88,-33.84 40.32,-8.641 72.72,-2.883 96.48,-3.602 1.44,2.879 3.6,5.04 6.48,7.918 -28.07,0 -74.16,7.207 -90.72,12.247 0,0 40.32,8.632 97.2,-7.207 l 0,0" /><path
         id="path40"
         style="fill:#2252ab;fill-opacity:1;fill-rule:evenodd;stroke:none"
         d="m 1509.12,696.961 c 0,-0.723 2.88,-15.117 19.44,-23.039 -36,15.84 -105.84,25.195 -143.99,40.32 -51.13,21.606 -60.49,48.235 -60.49,48.235 44.65,0.722 79.92,-10.079 108,-17.997 31.68,-10.078 81.36,-28.8 98.64,-35.996 -6.48,-0.722 -13.68,-2.16 -19.44,-6.484 -24.48,9.363 -35.28,12.957 -57.6,19.441 -17.28,5.039 -29.51,5.762 -40.32,6.485 0,0 15.12,-10.086 40.32,-18.008 24.48,-7.918 35.28,-8.633 55.44,-12.957 l 0,0" /><path
         id="path42"
         style="fill:#2252ab;fill-opacity:1;fill-rule:evenodd;stroke:none"
         d="m 1506.25,735.848 c 1.43,-2.168 5.75,-8.645 7.19,-10.801 -56.16,9.355 -118.8,52.558 -137.52,78.476 -19.44,26.637 -13.68,66.239 -13.68,66.239 18,-3.606 59.04,-38.875 69.12,-48.965 10.8,-10.801 42.48,-41.758 64.08,-59.031 l 7.2,-19.446 c -18.72,15.118 -41.04,31.68 -55.44,42.481 -10.08,7.922 -26.64,19.441 -42.48,24.48 0,0 15.12,-18.718 26.64,-28.086 13.68,-10.797 27.37,-20.152 38.88,-26.636 10.08,-5.039 15.12,-8.633 36.01,-18.711 l 0,0" /><path
         id="path44"
         style="fill:#2252ab;fill-opacity:1;fill-rule:evenodd;stroke:none"
         d="m 1665.36,578.156 c 1.44,1.449 2.88,2.887 4.32,4.321 2.88,-3.594 11.52,-14.391 15.84,-25.192 2.88,-9.355 6.48,-21.601 7.92,-28.797 2.16,-7.199 7.2,-22.324 10.08,-27.363 0,0 -13.68,-2.16 -23.76,10.078 -10.08,11.524 -13.68,23.047 -15.12,35.281 -0.72,9.368 -0.72,22.317 0.72,31.672 l 0,0" /><path
         id="path46"
         style="fill:#2252ab;fill-opacity:1;fill-rule:evenodd;stroke:none"
         d="m 1643.76,576.008 c 2.16,-2.891 5.04,-4.317 5.04,-4.317 l 2.16,-1.445 1.44,0.723 c 2.17,0.722 3.6,1.426 5.04,2.148 2.16,-5.754 2.88,-8.633 3.6,-12.949 0.72,-6.484 1.45,-16.563 -0.72,-24.484 -2.88,-10.079 -8.64,-15.84 -12.24,-19.442 0,0 -8.64,10.086 -11.52,18.008 -2.88,8.633 -3.6,18.719 0,28.797 1.44,5.039 4.32,10.07 7.2,12.961 l 0,0" /><path
         id="path48"
         style="fill:#2252ab;fill-opacity:1;fill-rule:evenodd;stroke:none"
         d="m 1612.8,575.285 c 9.36,1.445 15.84,4.32 21.6,8.637 0.72,-3.602 2.88,-7.914 1.44,-13.676 -1.44,-6.476 -5.76,-12.961 -12.24,-18 -8.63,-7.918 -21.6,-14.402 -35.27,-12.246 0,0 -2.89,10.09 24.47,35.285 l 0,0" /><path
         id="path50"
         style="fill:#2252ab;fill-opacity:1;fill-rule:evenodd;stroke:none"
         d="m 1602,592.566 c 1.44,-9.367 5.76,-15.132 5.76,-15.132 -2.88,-4.317 -14.4,-23.75 -38.88,-20.871 0,0 -6.48,13.683 10.08,24.48 10.8,7.195 15.84,8.641 23.04,11.523 l 0,0" /><path
         id="path52"
         style="fill:#2252ab;fill-opacity:1;fill-rule:evenodd;stroke:none"
         d="m 1604.17,609.84 c -6.49,-2.156 -14.41,-2.879 -25.21,0 l -2.16,0.723 -1.44,2.16 c -12.24,-10.078 -26.63,-11.528 -31.68,-20.879 0,0 5.76,-11.524 22.32,-9.367 15.84,2.168 28.08,9.367 36.72,20.168 0,2.156 0.72,5.039 1.45,7.195 l 0,0" /><path
         id="path54"
         style="fill:#2252ab;fill-opacity:1;fill-rule:evenodd;stroke:none"
         d="m 1576.8,623.523 c 2.16,3.602 3.61,8.641 8.64,14.403 -10.8,1.437 -20.16,1.437 -33.12,-0.723 -14.4,-2.883 -29.52,-6.484 -37.44,-28.797 0,0 9.36,-7.922 26.64,-4.328 15.13,2.883 27.36,9.367 35.28,19.445 l 0,0" /><path
         id="path56"
         style="fill:#2252ab;fill-opacity:1;fill-rule:evenodd;stroke:none"
         d="m 1570.32,648.004 c -3.6,3.594 -7.2,7.922 -9.36,12.961 l -1.44,2.879 c -12.96,5.039 -26.63,7.922 -39.6,2.883 -12.96,-4.329 -16.56,-10.09 -20.16,-15.129 0,0 15.12,-12.235 31.68,-12.957 16.56,0 32.4,4.324 38.88,9.363 l 0,0" /><path
         id="path58"
         style="fill:#2252ab;fill-opacity:1;fill-rule:evenodd;stroke:none"
         d="m 1573.92,674.645 c 2.16,0.714 5.04,1.433 7.92,2.16 -5.76,5.039 -11.52,12.957 -14.4,23.758 -5.76,-0.723 -20.16,-1.446 -25.92,1.437 -6.48,2.156 -18.72,2.156 -28.08,-3.594 0,0 3.6,-16.562 25.2,-22.328 19.44,-5.758 27.36,-4.312 35.28,-1.433 l 0,0" /><path
         id="path60"
         style="fill:#2252ab;fill-opacity:1;fill-rule:evenodd;stroke:none"
         d="m 1566.72,707.035 2.16,1.449 c 0.72,0.719 5.76,3.59 13.68,4.317 -7.2,5.039 -23.04,18.719 -35.28,25.203 -12.24,7.195 -33.11,16.555 -43.92,18 0,0 10.08,-26.641 21.61,-36.723 12.23,-11.519 20.87,-15.125 41.75,-12.246 l 0,0" /><path
         id="path62"
         style="fill:#2252ab;fill-opacity:1;fill-rule:evenodd;stroke:none"
         d="m 1588.33,719.281 c -5.05,6.477 -9.37,15.844 -12.25,26.645 -2.88,8.633 -7.92,30.957 -11.51,36.719 -2.89,5.039 -15.13,25.195 -38.17,31.675 0,0 -6.48,-25.914 5.76,-46.793 9.36,-17.289 30.24,-36.007 56.17,-48.246 l 0,0" /><path
         id="path64"
         style="fill:#2252ab;fill-opacity:1;fill-rule:evenodd;stroke:none"
         d="m 1716.48,599.039 c 2.88,-2.883 5.04,-5.039 10.08,-7.195 0,0 7.92,-14.41 -1.44,-30.953 -8.64,-17.286 -16.56,-34.563 -20.15,-44.649 0,0 -4.33,0.723 -10.09,27.363 -3.6,17.997 -7.92,23.036 -12.96,28.79 5.04,-2.149 9.36,-3.594 10.08,-3.594 l 3.6,0 1.44,2.89 c 2.88,6.465 4.32,12.231 4.32,17.27 0,1.437 0,2.883 -0.72,4.316 8.64,0 12.96,3.606 14.4,5.762 0.72,0.723 0.72,0.723 0.72,0.723 l 0.72,-0.723 0,0" /><path
         id="path66"
         style="fill:#2252ab;fill-opacity:1;fill-rule:evenodd;stroke:none"
         d="m 1519.92,803.523 c 0,-2.882 0,-5.761 0,-8.644 l 0,-6.473 c -13.67,17.996 -29.51,38.875 -45.35,58.321 -10.81,12.957 -19.45,20.878 -29.53,27.351 7.92,-24.473 23.04,-43.918 33.84,-53.992 10.8,-9.367 26.64,-25.93 41.76,-36.008 l 1.44,-5.039 c 1.44,-5.039 2.89,-9.355 5.76,-13.68 2.88,-6.476 7.92,-12.238 13.68,-18.722 -5.04,2.168 -10.08,5.051 -15.12,7.207 l -4.32,1.437 c -41.76,22.324 -82.8,68.399 -100.08,100.078 -16.56,31.676 -9.36,69.121 -5.04,88.563 18.72,-15.84 46.08,-47.52 57.61,-64.805 15.11,-20.879 33.83,-51.113 45.35,-74.875 l 0,-0.719" /><path
         id="path68"
         style="fill:#2252ab;fill-opacity:1;fill-rule:evenodd;stroke:none"
         d="m 2104.57,667.438 c -2.89,1.445 -5.77,2.882 -9.37,4.328 25.21,7.195 60.48,20.156 113.04,23.035 38.16,2.883 66.24,0.722 80.64,-2.879 0,0 -35.28,-25.195 -75.6,-33.84 -39.6,-8.641 -72.72,-2.883 -96.48,-3.602 -1.44,2.879 -2.88,5.04 -5.76,7.918 28.08,0 74.16,7.207 90.72,12.247 0,0 -40.32,8.632 -97.19,-7.207 l 0,0" /><path
         id="path70"
         style="fill:#2252ab;fill-opacity:1;fill-rule:evenodd;stroke:none"
         d="m 2104.57,696.961 c 0,-0.723 -2.89,-15.117 -19.45,-23.039 35.29,15.84 105.84,25.195 143.28,40.32 51.12,21.606 60.48,48.235 60.48,48.235 -43.91,0.722 -79.92,-10.079 -107.28,-17.997 -32.4,-10.078 -81.36,-28.8 -98.64,-35.996 6.48,-0.722 13.69,-2.16 19.44,-6.484 24.48,9.363 35.28,12.957 56.88,19.441 17.28,5.039 30.24,5.762 41.04,6.485 0,0 -15.12,-10.086 -40.32,-18.008 -24.48,-7.918 -35.28,-8.633 -55.43,-12.957 l 0,0" /><path
         id="path72"
         style="fill:#2252ab;fill-opacity:1;fill-rule:evenodd;stroke:none"
         d="m 2107.44,735.848 c -1.44,-2.168 -5.76,-8.645 -7.2,-10.801 56.16,9.355 118.09,52.558 137.52,78.476 19.44,26.637 13.68,66.239 13.68,66.239 -18.72,-3.606 -59.04,-38.875 -69.84,-48.965 -10.08,-10.801 -41.76,-41.758 -63.36,-59.031 l -7.2,-19.446 c 18.72,15.118 41.04,31.68 54.72,42.481 10.8,7.922 26.64,19.441 42.48,24.48 0,0 -14.4,-18.718 -25.92,-28.086 -13.68,-10.797 -28.08,-20.152 -38.88,-26.636 -10.08,-5.039 -15.84,-8.633 -36,-18.711 l 0,0" /><path
         id="path74"
         style="fill:#2252ab;fill-opacity:1;fill-rule:evenodd;stroke:none"
         d="m 2093.76,803.523 c 0,-2.882 0,-5.761 0,-8.644 l -0.72,-6.473 c 13.68,17.996 30.24,38.875 46.08,58.321 10.8,12.957 19.44,20.878 29.52,27.351 -8.64,-24.473 -23.76,-43.918 -34.56,-53.992 -10.8,-9.367 -25.92,-25.93 -41.04,-36.008 l -1.44,-5.039 c -1.44,-5.039 -2.87,-9.355 -5.76,-13.68 -3.6,-6.476 -7.92,-12.238 -13.68,-18.722 4.32,2.168 9.36,5.051 14.4,7.207 l 5.04,1.437 c 41.76,22.324 82.8,68.399 99.36,100.078 17.28,31.676 10.08,69.121 5.76,88.563 -18.72,-15.84 -46.08,-47.52 -58.32,-64.805 -14.4,-20.879 -33.12,-51.113 -44.64,-74.875 l 0,-0.719" /><path
         id="path76"
         style="fill:#2252ab;fill-opacity:1;fill-rule:evenodd;stroke:none"
         d="m 1573.2,551.523 c -17.28,-17.273 -53.28,-55.437 -50.4,-97.918 0,0 33.85,10.801 47.52,35.282 14.4,25.195 23.04,40.324 28.8,46.074 -4.32,-0.711 -7.92,-0.711 -11.52,0 l -2.88,0.723 c -8.64,-15.84 -25.2,-41.036 -41.04,-50.399 0,0 -3.6,20.879 41.04,62.645 0.72,1.437 1.44,3.593 2.88,5.754 -4.32,-1.438 -8.64,-2.161 -13.68,-2.161 l -0.72,0 0,0" /><path
         id="path78"
         style="fill:#2252ab;fill-opacity:1;fill-rule:evenodd;stroke:none"
         d="m 2034,783.363 c -7.92,-19.441 -22.32,-38.883 -60.48,-64.8 -8.64,-5.762 -18,-18 -10.8,-35.286 7.2,-17.273 20.88,-41.035 12.25,-50.398 -7.93,-10.078 -36.73,-14.395 -59.77,-5.039 0,0 -5.04,-15.117 -13.68,-24.477 0,0 4.32,-7.918 17.28,-4.324 0,0 -5.04,-12.234 2.16,-25.199 0,0 15.84,2.89 22.32,17.277 0,0 6.48,-11.512 18.72,-15.109 0,0 10.8,5.035 8.64,25.914 0,0 7.2,-18.723 30.96,-21.602 0,0 13.68,17.285 -4.32,40.321 0,0 12.96,-11.524 36,-6.485 0,0 3.6,12.246 -17.28,28.086 0,0 23.04,1.438 32.4,20.879 0,0 -10.07,12.238 -34.56,9.356 0,0 23.04,5.05 28.08,32.402 0,0 -16.56,10.078 -42.48,-6.473 0,0 5.04,8.629 15.84,17.274 10.8,8.64 23.76,32.402 18.72,67.683 l 0,0" /><path
         id="path80"
         style="fill:#2252ab;fill-opacity:1;fill-rule:evenodd;stroke:none"
         d="m 1939.68,511.203 c 3.6,4.324 6.48,9.363 7.92,13.68 -3.6,-33.113 -5.04,-55.438 -23.03,-76.317 0,0 -10.81,14.403 -3.61,48.965 2.88,0.711 6.48,2.157 9.36,4.317 0,0 -3.6,-14.407 -1.44,-28.078 0,0 6.48,4.316 10.8,37.433 l 0,0" /><path
         id="path82"
         style="fill:#2252ab;fill-opacity:1;fill-rule:evenodd;stroke:none"
         d="m 1970.64,514.805 c 2.16,2.16 6.48,7.922 8.64,12.238 1.44,-19.434 6.48,-69.113 -10.8,-84.961 0,0 -11.52,8.641 -15.12,81.367 2.16,-3.605 6.48,-7.922 8.64,-10.801 0,0 -2.88,-23.039 5.76,-39.601 0,0 7.92,6.476 2.88,41.758 l 0,0" /><path
         id="path84"
         style="fill:#2252ab;fill-opacity:1;fill-rule:evenodd;stroke:none"
         d="m 2010.96,476.641 c -14.4,16.562 -18.72,66.964 -18.72,66.964 -2.16,1.446 -3.6,2.879 -5.76,4.325 -0.72,0.715 -1.44,1.437 -2.16,2.16 0,-1.445 0,-3.606 -0.72,-5.762 2.16,-30.246 5.04,-61.926 14.4,-77.043 9.36,-15.84 25.92,-23.758 25.92,-23.758 16.56,28.797 -2.88,66.961 -19.44,93.602 -2.16,0.715 -3.6,2.16 -5.75,2.871 5.75,-20.156 16.55,-44.637 12.23,-63.359 l 0,0" /><path
         id="path86"
         style="fill:#2252ab;fill-opacity:1;fill-rule:evenodd;stroke:none"
         d="m 2050.56,564.484 c 0,-3.593 -0.72,-6.476 -0.72,-7.921 -0.72,0 -0.72,-0.711 -0.72,-1.434 12.96,-13.684 23.04,-25.918 43.2,-54.004 20.17,-27.355 51.12,-28.801 51.12,-28.801 -2.88,22.324 -8.64,40.324 -25.92,59.758 -16.56,18.719 -38.16,36.004 -54,48.238 -4.32,-2.164 -9.35,-3.59 -16.56,-2.886 -0.71,0 -0.71,0.722 -1.44,0.722 2.16,-2.871 3.6,-5.761 4.32,-8.633 11.52,-6.476 46.81,-24.472 61.2,-53.281 0,0 -22.31,7.207 -60.48,48.242 l 0,0" /><path
         id="path88"
         style="fill:#2252ab;fill-opacity:1;fill-rule:evenodd;stroke:none"
         d="m 2075.76,591.844 -1.44,2.879 c -0.72,0.722 -0.72,1.433 -1.43,2.16 12.95,-5.039 59.03,-23.043 74.15,-30.242 15.12,-7.918 36.72,-25.918 48.24,-61.192 0,0 -30.96,-2.879 -56.88,18 -25.91,21.602 -55.44,51.114 -68.4,61.196 1.44,0.714 2.16,2.16 2.89,2.882 0,0 34.55,-30.964 71.99,-43.922 0,0 -7.92,14.403 -23.04,24.481 -17.27,12.957 -30.96,16.559 -46.08,23.758 l 0,0" /><path
         id="path90"
         style="fill:#2252ab;fill-opacity:1;fill-rule:evenodd;stroke:none"
         d="m 2101.68,613.445 c 0,0.711 -0.72,2.157 -1.44,3.59 15.84,-3.59 54,-7.918 70.57,-12.957 17.27,-5.762 48.23,-18 66.23,-52.555 0,0 -26.63,-8.64 -77.76,15.118 -50.4,23.757 -66.24,28.804 -75.6,31.675 7.2,0.723 12.97,2.879 15.84,5.047 20.16,-9.363 46.8,-20.164 74.16,-20.886 0,0 -13.68,9.367 -27.36,15.128 -15.12,6.473 -31.68,12.235 -44.64,15.84 l 0,0" /><path
         id="path92"
         style="fill:#2252ab;fill-opacity:1;fill-rule:evenodd;stroke:none"
         d="m 2100.96,638.641 c -5.04,-2.883 -9.36,-3.594 -15.12,-4.321 2.89,-2.156 6.48,-5.039 9.36,-9.363 18,-5.039 48.24,-10.801 98.64,-14.394 50.4,-3.602 77.04,5.761 77.04,5.761 -17.28,10.801 -45.36,21.602 -64.08,25.196 -18.72,3.605 -68.4,3.605 -90,6.484 -0.72,-0.723 -2.88,-2.879 -7.2,-5.039 18,-2.168 56.88,-3.602 77.05,-13.684 0,0 -36.73,-5.039 -85.69,9.36 l 0,0" /><path
         id="path94"
         style="fill:#2252ab;fill-opacity:1;fill-rule:evenodd;stroke:none"
         d="m 1948.33,578.156 c -2.17,1.449 -3.61,2.887 -4.33,4.321 -2.88,-3.594 -11.51,-14.391 -15.84,-25.192 -3.59,-9.355 -6.48,-21.601 -8.64,-28.797 -1.44,-7.199 -6.48,-22.324 -10.08,-27.363 0,0 13.68,-2.16 24.48,10.078 9.36,11.524 12.96,23.047 14.41,35.281 1.43,9.368 1.43,22.317 0,31.672 l 0,0" /><path
         id="path96"
         style="fill:#2252ab;fill-opacity:1;fill-rule:evenodd;stroke:none"
         d="m 1969.92,576.008 c -2.88,-2.891 -5.04,-4.317 -5.04,-4.317 l -2.16,-1.445 -2.16,0.723 c -1.44,0.722 -2.88,1.426 -4.31,2.148 -2.17,-5.754 -2.89,-8.633 -3.61,-12.949 -0.72,-6.484 -2.16,-16.563 0.72,-24.484 2.89,-10.079 8.64,-15.84 11.52,-19.442 0,0 9.36,10.086 11.52,18.008 2.88,8.633 4.32,18.719 0.72,28.797 -2.15,5.039 -5.04,10.07 -7.2,12.961 l 0,0" /><path
         id="path98"
         style="fill:#2252ab;fill-opacity:1;fill-rule:evenodd;stroke:none"
         d="m 2000.88,575.285 c -9.36,1.445 -16.56,4.32 -21.6,8.637 -0.72,-3.602 -2.88,-7.914 -1.44,-13.676 1.44,-6.476 5.76,-12.961 11.52,-18 9.37,-7.918 21.6,-14.402 35.28,-12.246 0,0 3.6,10.09 -23.76,35.285 l 0,0" /><path
         id="path100"
         style="fill:#2252ab;fill-opacity:1;fill-rule:evenodd;stroke:none"
         d="m 2010.96,592.566 c -0.72,-9.367 -5.04,-15.132 -5.76,-15.132 3.6,-4.317 15.12,-23.75 38.88,-20.871 0,0 6.48,13.683 -9.36,24.48 -10.8,7.195 -15.84,8.641 -23.76,11.523 l 0,0" /><path
         id="path102"
         style="fill:#2252ab;fill-opacity:1;fill-rule:evenodd;stroke:none"
         d="m 2008.8,609.84 c 6.48,-2.156 15.12,-2.879 25.2,0 l 2.88,0.723 0.72,2.16 c 12.24,-10.078 27.37,-11.528 32.4,-20.879 0,0 -6.48,-11.524 -22.32,-9.367 -15.84,2.168 -28.08,9.367 -36.72,20.168 -0.72,2.156 -1.44,5.039 -2.16,7.195 l 0,0" /><path
         id="path104"
         style="fill:#2252ab;fill-opacity:1;fill-rule:evenodd;stroke:none"
         d="m 2036.88,623.523 c -2.16,3.602 -3.6,8.641 -8.64,14.403 10.8,1.437 20.16,1.437 32.4,-0.723 15.12,-2.883 30.24,-6.484 38.16,-28.797 0,0 -10.07,-7.922 -27.36,-4.328 -14.4,2.883 -27.36,9.367 -34.56,19.445 l 0,0" /><path
         id="path106"
         style="fill:#2252ab;fill-opacity:1;fill-rule:evenodd;stroke:none"
         d="m 2043.36,648.004 c 3.6,3.594 7.2,7.922 9.36,12.961 l 1.45,2.879 c 12.95,5.039 25.91,7.922 39.59,2.883 12.96,-4.329 16.56,-10.09 19.44,-15.129 0,0 -14.4,-12.235 -30.96,-12.957 -16.56,0 -32.4,4.324 -38.88,9.363 l 0,0" /><path
         id="path108"
         style="fill:#2252ab;fill-opacity:1;fill-rule:evenodd;stroke:none"
         d="m 2039.04,674.645 c -2.16,0.714 -4.32,1.433 -7.2,2.16 5.76,5.039 11.52,12.957 13.68,23.758 6.48,-0.723 20.16,-1.446 26.64,1.437 5.76,2.156 18,2.156 27.36,-3.594 0,0 -2.87,-16.562 -24.48,-22.328 -20.16,-5.758 -27.36,-4.312 -36,-1.433 l 0,0" /><path
         id="path110"
         style="fill:#2252ab;fill-opacity:1;fill-rule:evenodd;stroke:none"
         d="m 2046.96,707.035 -2.88,1.449 c 0,0.719 -5.04,3.59 -12.96,4.317 6.48,5.039 23.05,18.719 34.56,25.203 12.96,7.195 33.84,16.555 44.64,18 0,0 -10.08,-26.641 -21.59,-36.723 -12.25,-11.519 -20.89,-15.125 -41.77,-12.246 l 0,0" /><path
         id="path112"
         style="fill:#2252ab;fill-opacity:1;fill-rule:evenodd;stroke:none"
         d="m 2025.36,719.281 c 5.05,6.477 9.36,15.844 12.24,26.645 2.16,8.633 7.92,30.957 11.52,36.719 2.88,5.039 15.12,25.195 38.16,31.675 0,0 5.76,-25.914 -5.76,-46.793 -10.08,-17.289 -30.24,-36.007 -56.16,-48.246 l 0,0" /><path
         id="path114"
         style="fill:#2252ab;fill-opacity:1;fill-rule:evenodd;stroke:none"
         d="m 1897.2,599.039 c -3.6,-2.883 -5.76,-5.039 -10.8,-7.195 0,0 -7.2,-14.41 1.44,-30.953 9.36,-17.286 16.56,-34.563 20.16,-44.649 0,0 5.04,0.723 10.08,27.363 4.32,17.997 8.64,23.036 13.68,28.79 -5.76,-2.149 -10.08,-3.594 -10.08,-3.594 l -3.6,0 -1.43,2.89 c -3.61,6.465 -4.33,12.231 -4.33,17.27 0,1.437 0,2.883 0,4.316 -7.92,0 -12.24,3.606 -14.4,5.762 0,0.723 0,0.723 0,0.723 l -0.72,-0.723 0,0" /><path
         id="path116"
         style="fill:#2252ab;fill-opacity:1;fill-rule:evenodd;stroke:none"
         d="m 2040.48,551.523 c 17.28,-17.273 53.28,-55.437 49.68,-97.918 0,0 -33.84,10.801 -47.52,35.282 -13.68,25.195 -22.32,40.324 -28.07,46.074 3.59,-0.711 7.19,-0.711 11.51,0 l 2.88,0.723 c 8.64,-15.84 25.21,-41.036 40.32,-50.399 0,0 4.32,20.879 -41.04,62.645 0,1.437 -1.44,3.593 -2.16,5.754 3.6,-1.438 8.64,-2.161 13.68,-2.161 l 0.72,0 0,0" /><path
         id="path118"
         style="fill:#2252ab;fill-opacity:1;fill-rule:evenodd;stroke:none"
         d="m 1780.56,884.879 c 0,2.883 11.52,5.762 25.92,5.762 14.4,0 26.64,-2.879 26.64,-5.762 0,-2.879 -12.24,-5.762 -26.64,-5.762 -14.4,0 -25.92,2.883 -25.92,5.762 l 0,0" /><path
         id="path120"
         style="fill:#2252ab;fill-opacity:1;fill-rule:evenodd;stroke:none"
         d="m 1691.28,854.645 c 0,2.16 7.2,2.882 16.56,2.882 9.36,0 17.28,-0.722 17.28,-2.882 0,-1.446 -7.92,-2.879 -17.28,-2.879 -9.36,0 -16.56,1.433 -16.56,2.879 l 0,0" /><path
         id="path122"
         style="fill:#2252ab;fill-opacity:1;fill-rule:evenodd;stroke:none"
         d="m 1811.52,872.645 c 0,-2.883 -2.16,-5.04 -5.04,-5.04 -2.88,0 -5.04,2.157 -5.04,5.04 0,2.878 2.16,5.039 5.04,5.039 2.88,0 5.04,-2.161 5.04,-5.039 l 0,0" /><path
         id="path124"
         style="fill:#2252ab;fill-opacity:1;fill-rule:evenodd;stroke:none"
         d="m 1778.4,890.641 c -8.64,20.879 -14.4,35.996 -14.4,41.047 0,3.593 4.33,5.75 7.2,6.472 3.6,1.445 7.2,1.445 9.36,0 4.32,-3.601 8.64,-31.68 10.08,-43.918 -4.32,-0.719 -7.2,-1.441 -12.24,-3.601 l 0,0" /><path
         id="path126"
         style="fill:#2252ab;fill-opacity:1;fill-rule:evenodd;stroke:none"
         d="m 1794.24,894.957 c 2.16,0 5.04,0.723 7.2,0.723 -1.44,10.8 -5.04,29.519 -7.92,36.718 -2.16,7.207 -5.04,12.961 -10.08,14.407 0,0 4.32,-10.801 5.76,-20.879 2.16,-10.805 4.32,-20.879 5.04,-30.969 l 0,0" /><path
         id="path128"
         style="fill:#2252ab;fill-opacity:1;fill-rule:evenodd;stroke:none"
         d="m 1766.88,857.527 c 9.37,2.157 19.44,12.957 19.44,12.957 -15.84,-2.168 -19.44,-12.957 -19.44,-12.957 l 0,0 z m 14.4,1.434 c -13.68,-7.918 -28.79,-7.195 -28.79,-7.195 2.87,5.761 5.75,10.8 14.39,16.55 8.64,5.762 22.32,7.207 27.36,6.485 -1.44,-3.606 -6.48,-12.235 -12.96,-15.84 l 0,0" /><path
         id="path130"
         style="fill:#2252ab;fill-opacity:1;fill-rule:evenodd;stroke:none"
         d="m 1730.88,836.637 0,0.722 c -12.96,-1.433 -28.8,-0.722 -28.8,-0.722 0.72,-5.039 2.89,-8.633 6.48,-10.789 0.72,10.789 22.32,10.789 22.32,10.789 l 0,0 z m -43.92,14.406 c 0,0 17.28,-6.484 33.85,-5.762 16.55,0.723 47.52,1.446 57.59,5.762 0,0 -2.15,-5.762 -10.07,-9.355 0,0 4.31,0 8.63,-3.606 0,0 -2.88,-5.762 -9.36,-7.922 0,0 12.24,-13.68 25.92,-12.234 0,0 -6.48,-7.93 -20.16,-5.047 -13.68,2.879 -18,10.801 -20.87,13.68 0,0 2.15,-7.196 1.43,-10.079 0,0 -6.48,0 -11.52,5.762 0,0 3.6,-5.762 4.32,-10.801 0,0 -3.6,-0.722 -10.8,3.606 0,0 1.44,-3.606 2.16,-7.922 0,0 -16.56,5.039 -24.48,12.238 0,0 0,-5.043 0.72,-7.922 0,0 -25.2,2.879 -27.36,39.602 l 0,0" /><path
         id="path132"
         style="fill:#2252ab;fill-opacity:1;fill-rule:evenodd;stroke:none"
         d="m 1683.36,848.16 c 0.72,-7.922 2.89,-15.84 5.76,-21.601 0,0 -10.08,7.921 -12.24,13.679 -2.88,6.489 -3.6,10.805 6.48,7.922 l 0,0" /><path
         id="path134"
         style="fill:#2252ab;fill-opacity:1;fill-rule:evenodd;stroke:none"
         d="m 1663.92,817.926 c 2.16,0 3.6,2.16 3.6,4.316 0,2.16 -1.44,4.317 -3.6,4.317 -2.88,0 -4.32,-2.157 -4.32,-4.317 0,-2.156 1.44,-4.316 4.32,-4.316 l 0,0 z m 23.76,5.039 c 6.49,-2.879 12.24,-10.086 12.24,-10.086 -9.36,-2.16 -14.4,-5.039 -14.4,-5.039 -18.72,12.957 -34.56,0 -34.56,0 -10.08,5.762 -12.23,20.164 -7.2,27.359 5.04,7.922 16.56,6.489 22.32,5.039 3.6,-10.797 15.84,-14.39 21.6,-17.273 l 0,0" /><path
         id="path136"
         style="fill:#2252ab;fill-opacity:1;fill-rule:evenodd;stroke:none"
         d="m 1702.08,809.996 c 0,0 7.2,-8.633 12.24,-12.961 0,0 -25.92,0 -32.4,-22.312 0,0 -8.64,13.683 -2.16,23.039 7.2,9.363 13.68,10.801 22.32,12.234 l 0,0" /><path
         id="path138"
         style="fill:#2252ab;fill-opacity:1;fill-rule:evenodd;stroke:none"
         d="m 1730.88,804.957 c 0,0 7.92,-2.883 10.8,-3.594 0,0 0,5.039 0,7.2 2.16,-0.723 5.76,-1.438 7.92,-1.438 0,0 8.64,-18.719 15.12,-25.93 0,0 0,-4.312 -3.6,-10.797 0,0 -4.32,11.524 -12.96,20.165 -4.32,5.039 -7.92,7.199 -17.28,14.394 l 0,0" /><path
         id="path140"
         style="fill:#2252ab;fill-opacity:1;fill-rule:evenodd;stroke:none"
         d="m 1708.56,808.563 c 2.88,-0.723 15.84,-5.04 22.32,-9.36 8.64,-5.758 13.69,-12.242 12.96,-23.758 0,0 -6.48,8.633 -13.68,12.961 -5.76,3.594 -15.84,12.235 -21.6,20.157 l 0,0" /><path
         id="path142"
         style="fill:#2252ab;fill-opacity:1;fill-rule:evenodd;stroke:none"
         d="m 1709.28,892.801 c 2.16,0 7.2,-1.438 7.2,-5.766 0,-3.59 -6.48,-12.957 -7.92,-17.273 l -0.72,0 c -1.44,4.316 -7.2,13.683 -7.2,17.273 0,4.328 4.33,5.766 7.2,5.766 l 1.44,0 0,0" /><path
         id="path144"
         style="fill:#2252ab;fill-opacity:1;fill-rule:evenodd;stroke:none"
         d="m 1703.52,861.844 c -1.44,5.761 -3.6,20.156 -6.48,23.035 -3.6,2.883 -8.64,3.605 -10.79,2.883 -2.17,0 -5.05,-2.16 -3.61,-5.762 0.72,-2.883 11.53,-18.723 12.96,-20.883 2.16,0 2.16,0 7.92,0.727 l 0,0" /><path
         id="path146"
         style="fill:#2252ab;fill-opacity:1;fill-rule:evenodd;stroke:none"
         d="m 1712.89,861.844 c 1.43,5.761 3.59,20.156 7.19,23.035 2.88,2.883 7.92,3.605 10.08,2.883 2.16,0 5.04,-2.16 4.32,-5.762 -1.44,-2.883 -12.24,-18.723 -13.67,-20.883 -2.17,0 -1.45,0 -7.92,0.727 l 0,0" /><path
         id="path148"
         style="fill:#2252ab;fill-opacity:1;fill-rule:evenodd;stroke:none"
         d="m 1720.08,911.52 -8.64,0 0,9.367 -6.47,0 0,-9.367 -8.65,0 0,-5.762 8.65,0 0,-10.801 6.47,0 0,10.801 8.64,0 0,5.762" /><path
         id="path150"
         style="fill:#2252ab;fill-opacity:1;fill-rule:evenodd;stroke:none"
         d="m 1619.28,852.477 c 0,2.168 0,3.601 0,5.761 0.72,4.328 0.72,7.918 0.72,10.801 -6.48,-2.156 -10.08,-3.594 -18.72,-16.562 0,0 12.96,7.921 18,0 l 0,0" /><path
         id="path152"
         style="fill:#2252ab;fill-opacity:1;fill-rule:evenodd;stroke:none"
         d="m 1630.81,831.598 c 0,3.601 2.15,13.683 5.03,20.879 2.89,9.367 1.44,22.324 -2.88,30.246 -3.6,7.918 -5.76,15.117 -5.04,23.035 0,0 -7.92,-2.879 -12.24,-5.762 -0.71,-9.355 4.32,-17.996 7.21,-23.758 2.87,-5.754 2.15,-14.394 1.43,-18.711 -0.72,-8.644 0.72,-17.289 6.49,-25.929 l 0,0" /><path
         id="path154"
         style="fill:#2252ab;fill-opacity:1;fill-rule:evenodd;stroke:none"
         d="m 1631.52,902.164 c 0,0.715 0,3.594 0,5.039 0,0 12.24,11.516 23.05,13.684 6.47,1.433 10.07,-1.446 12.23,-2.883 0,0 -3.6,0 -9.36,-4.324 -5.04,-4.317 -12.24,-9.36 -17.28,-10.801 -5.04,-1.438 -6.48,-1.438 -8.64,-0.715 l 0,0" /><path
         id="path156"
         style="fill:#2252ab;fill-opacity:1;fill-rule:evenodd;stroke:none"
         d="m 1667.52,917.281 c 5.04,-5.039 8.64,-10.078 8.64,-13.679 0,-5.039 -5.04,-15.84 -7.92,-20.157 -2.88,-3.605 -6.48,-9.367 -5.75,-15.84 0,-3.605 2.15,-7.207 5.03,-10.078 0,0 -15.12,3.59 -16.56,12.957 -2.16,8.633 1.44,14.395 4.32,18.719 2.16,4.32 8.64,14.399 10.8,18.723 1.44,3.594 2.16,7.195 1.44,9.355 l 0,0" /><path
         id="path158"
         style="fill:#2252ab;fill-opacity:1;fill-rule:evenodd;stroke:none"
         d="m 1755.36,812.879 c 2.88,-10.805 7.92,-20.879 12.97,-28.801 4.31,-7.195 7.19,-18.719 7.19,-22.312 0,0 6.48,15.117 2.88,25.195 -2.15,8.641 -9.36,20.879 -23.04,25.918 l 0,0" /><path
         id="path160"
         style="fill:#2252ab;fill-opacity:1;fill-rule:evenodd;stroke:none"
         d="m 1771.92,809.281 c 0,0 10.8,0 15.12,-3.601 6.48,-3.606 12.24,-12.957 14.4,-23.758 0,0 -10.08,2.156 -15.12,7.195 -5.04,5.039 -11.52,12.957 -14.4,20.164 l 0,0" /><path
         id="path162"
         style="fill:#2252ab;fill-opacity:1;fill-rule:evenodd;stroke:none"
         d="m 1718.64,790.563 c -1.44,0 -7.2,-1.446 -9.36,-2.157 0,0 8.64,-2.168 12.96,-5.761 3.6,-3.606 7.2,-7.922 8.64,-15.84 2.16,-11.524 8.64,-23.762 10.8,-27.364 l 0.72,0 c -1.44,7.918 3.6,23.758 4.32,25.918 0,0 -6.48,5.039 -10.07,9.364 -2.17,2.882 -6.49,8.64 -18.01,15.84 l 0,0" /><path
         id="path164"
         style="fill:#2252ab;fill-opacity:1;fill-rule:evenodd;stroke:none"
         d="m 1764.72,766.805 c 2.16,-5.762 9.36,-16.567 5.76,-27.364 -2.88,-10.8 -10.07,-15.839 -14.4,-24.484 0,0 -3.59,16.563 -2.88,29.523 0.72,12.247 5.76,17.286 11.52,22.325 l 0,0" /><path
         id="path166"
         style="fill:#2252ab;fill-opacity:1;fill-rule:evenodd;stroke:none"
         d="m 1784.17,766.078 c 0,0 10.07,-19.441 12.23,-27.359 1.44,-7.922 0,-12.961 -3.6,-18 -3.6,-4.317 -9.36,-9.356 -14.4,-19.434 0,0 -6.48,8.633 -7.2,12.957 -0.72,4.321 0.72,15.121 1.44,19.438 1.44,4.324 7.2,18.008 11.53,32.398 l 0,0" /><path
         id="path168"
         style="fill:#2252ab;fill-opacity:1;fill-rule:evenodd;stroke:none"
         d="m 1789.2,702.723 c -2.16,-2.16 -13.68,-16.567 -15.12,-20.879 -2.16,-4.317 -5.04,-12.239 -0.72,-17.285 3.6,-5.754 12.24,-14.399 19.44,-18 0,0 -7.92,12.246 -7.2,23.046 0.72,6.473 5.76,12.239 6.48,15.84 0.72,4.317 0.72,10.793 -2.88,17.278 l 0,0" /><path
         id="path170"
         style="fill:#2252ab;fill-opacity:1;fill-rule:evenodd;stroke:none"
         d="m 1766.16,710.641 c 2.17,-2.157 5.04,-8.641 5.76,-14.403 0,-5.754 -0.72,-10.793 -4.32,-19.433 -3.6,-10.801 -10.08,-23.039 -12.96,-28.801 0,0 -5.76,7.922 -8.64,15.117 0,0 8.64,12.238 12.24,20.879 4.32,9.363 6.48,18.723 7.92,26.641 l 0,0" /><path
         id="path172"
         style="fill:#2252ab;fill-opacity:1;fill-rule:evenodd;stroke:none"
         d="m 1761.84,715.68 c 0,0 -3.6,-28.797 -20.16,-49.676 -11.52,-13.684 -20.16,-18.723 -26.64,-18.723 -8.64,0 -18,7.199 -20.87,15.84 -3.61,9.356 -2.17,22.324 3.59,27.363 0,0 5.76,-17.285 17.28,-17.285 12.96,-0.722 30.24,13.684 46.8,42.481 l 0,0" /><path
         id="path174"
         style="fill:#2252ab;fill-opacity:1;fill-rule:evenodd;stroke:none"
         d="m 1748.16,727.203 c 1.44,-5.039 2.16,-12.961 0,-20.168 -1.44,-5.75 -4.32,-12.957 -10.8,-16.551 -5.76,-3.601 -18.72,-4.328 -23.76,7.922 0,0 23.76,-1.445 34.56,28.797 l 0,0" /><path
         id="path176"
         style="fill:#2252ab;fill-opacity:1;fill-rule:evenodd;stroke:none"
         d="m 1787.76,613.445 c 3.6,-8.644 15.13,-19.445 15.13,-25.918 0,-17.281 -7.92,-28.082 -9.37,-33.843 0,0 -14.4,10.8 -16.56,23.75 -1.44,6.488 0,26.644 10.8,36.011 l 0,0" /><path
         id="path178"
         style="fill:#2252ab;fill-opacity:1;fill-rule:evenodd;stroke:none"
         d="m 1772.64,601.195 c 1.44,4.328 6.48,16.567 12.24,20.879 0,0 7.92,23.051 -16.55,36.731 0,0 -10.09,-13.68 -12.97,-25.926 -2.87,-12.961 10.8,-20.156 17.28,-31.684 l 0,0" /><path
         id="path180"
         style="fill:#2252ab;fill-opacity:1;fill-rule:evenodd;stroke:none"
         d="m 1741.68,658.082 c -4.32,-5.039 -9.36,-11.523 -14.4,-13.68 0,0 -1.44,-10.082 0,-16.562 0.72,-10.078 7.2,-20.156 10.08,-27.356 0,0 10.8,13.672 12.24,22.317 0.72,7.918 0.72,15.125 1.44,18.719 0,0 -6.47,10.078 -9.36,16.562 l 0,0" /><path
         id="path182"
         style="fill:#2252ab;fill-opacity:1;fill-rule:evenodd;stroke:none"
         d="m 1712.89,609.84 c -2.89,4.316 -12.97,21.601 -12.97,33.84 0,0 12.24,-6.477 22.32,-1.438 0,0 1.44,-16.562 -0.72,-21.601 -1.44,-4.317 -3.6,-7.196 -8.63,-10.801 l 0,0" /><path
         id="path184"
         style="fill:#2252ab;fill-opacity:1;fill-rule:evenodd;stroke:none"
         d="m 1715.76,606.238 c 2.16,1.446 7.2,6.485 8.64,8.641 0,0 8.64,-15.117 10.08,-19.434 0,0 -4.32,-0.722 -8.64,2.16 -4.32,3.59 -5.76,4.317 -10.08,8.633 l 0,0" /><path
         id="path186"
         style="fill:#2252ab;fill-opacity:1;fill-rule:evenodd;stroke:none"
         d="m 1753.2,614.879 c -0.71,-3.594 -13.68,-21.602 -16.55,-23.762 0,0 1.43,-6.472 6.47,-16.554 4.32,-9.356 11.52,-15.84 15.12,-18.711 0,0 7.92,13.671 10.09,20.156 2.87,6.469 2.15,13.676 1.43,16.558 -2.88,5.75 -12.24,14.395 -16.56,22.313 l 0,0" /><path
         id="path188"
         style="fill:#2252ab;fill-opacity:1;fill-rule:evenodd;stroke:none"
         d="m 1772.64,567.363 c 2.88,-5.761 11.53,-15.117 12.96,-23.035 1.44,-5.762 0,-10.078 -1.43,-14.406 -1.45,-4.317 -6.49,-12.234 -10.09,-17.996 0,0 -12.24,10.801 -14.4,18.719 -2.16,6.484 -1.44,15.117 1.44,20.156 2.88,5.051 8.64,11.523 11.52,16.562 l 0,0" /><path
         id="path190"
         style="fill:#2252ab;fill-opacity:1;fill-rule:evenodd;stroke:none"
         d="m 1738.8,569.523 c 3.6,-7.199 10.8,-13.671 12.24,-19.433 2.16,-7.207 2.88,-11.524 -0.72,-19.445 -2.88,-7.196 -6.48,-11.524 -7.92,-15.84 0,0 -9.36,12.238 -10.8,18 -1.44,5.039 -2.16,13.679 0,18.718 1.44,5.762 5.05,12.961 7.2,18 l 0,0" /><path
         id="path192"
         style="fill:#2252ab;fill-opacity:1;fill-rule:evenodd;stroke:none"
         d="m 1786.32,521.289 c 0,0 -16.56,-19.441 -15.84,-30.242 0.72,-13.684 9.36,-22.324 10.8,-30.246 0,0 8.64,10.09 11.52,16.562 3.6,7.2 6.48,13.684 5.76,22.325 -0.72,7.921 -2.88,13.683 -12.24,21.601 l 0,0" /><path
         id="path194"
         style="fill:#2252ab;fill-opacity:1;fill-rule:evenodd;stroke:none"
         d="m 1756.08,523.449 c 2.88,-3.605 10.08,-16.562 7.92,-24.484 -2.16,-7.918 -10.08,-18.719 -12.96,-23.758 0,0 -6.47,13.68 -7.92,19.441 -1.44,6.477 0,16.555 12.96,28.801 l 0,0" /><path
         id="path196"
         style="fill:#2252ab;fill-opacity:1;fill-rule:evenodd;stroke:none"
         d="m 1922.4,854.645 c 0,2.16 -7.92,2.882 -17.28,2.882 -9.36,0 -16.56,-0.722 -16.56,-2.882 0,-1.446 7.2,-2.879 16.56,-2.879 9.36,0 17.28,1.433 17.28,2.879 l 0,0" /><path
         id="path198"
         style="fill:#2252ab;fill-opacity:1;fill-rule:evenodd;stroke:none"
         d="m 1807.2,906.48 c 0.72,7.922 9.36,23.758 9.36,30.958 0,5.761 -4.32,10.089 -10.08,10.089 -5.04,0 -10.08,-4.328 -10.08,-10.089 0,-7.2 9.36,-23.036 10.08,-30.958 l 0.72,0 0,0" /><path
         id="path200"
         style="fill:#2252ab;fill-opacity:1;fill-rule:evenodd;stroke:none"
         d="m 1834.57,890.641 c 9.35,20.879 15.11,35.996 14.39,41.047 0,3.593 -3.6,5.75 -7.2,6.472 -3.6,1.445 -6.48,1.445 -8.64,0 -5.04,-3.601 -8.64,-31.68 -10.8,-43.918 5.04,-0.719 7.2,-1.441 12.25,-3.601 l 0,0" /><path
         id="path202"
         style="fill:#2252ab;fill-opacity:1;fill-rule:evenodd;stroke:none"
         d="m 1818.73,894.957 c -2.17,0 -4.33,0.723 -6.49,0.723 1.44,10.8 5.04,29.519 7.2,36.718 2.16,7.207 5.04,12.961 10.08,14.407 0,0 -3.6,-10.801 -5.76,-20.879 -2.16,-10.805 -3.6,-20.879 -5.03,-30.969 l 0,0" /><path
         id="path204"
         style="fill:#2252ab;fill-opacity:1;fill-rule:evenodd;stroke:none"
         d="m 1827.36,870.484 c 0,0 9.36,-10.8 19.44,-12.957 0,0 -4.31,10.789 -19.44,12.957 l 0,0 z m -8.63,4.317 c 5.75,0.722 19.43,-0.723 28.07,-6.485 7.92,-5.75 10.8,-10.789 13.68,-16.55 0,0 -15.12,-0.723 -28.08,7.195 -6.48,3.605 -12.24,12.234 -13.67,15.84 l 0,0" /><path
         id="path206"
         style="fill:#2252ab;fill-opacity:1;fill-rule:evenodd;stroke:none"
         d="m 1905.12,825.848 c 2.88,2.156 5.04,5.75 5.76,10.789 0,0 -15.12,-0.711 -28.8,0.722 l 0,-0.722 c 0,0 21.6,0 23.04,-10.789 l 0,0 z m -5.76,-14.407 c 0,2.879 0,7.922 0,7.922 -7.92,-7.199 -23.76,-12.238 -23.76,-12.238 0,4.316 1.44,7.922 1.44,7.922 -6.48,-4.328 -10.79,-3.606 -10.79,-3.606 0.71,5.039 4.31,10.801 4.31,10.801 -4.31,-5.762 -10.8,-5.762 -10.8,-5.762 -0.72,2.883 0.72,10.079 0.72,10.079 -2.15,-2.879 -6.48,-10.801 -20.16,-13.68 -14.4,-2.883 -20.88,5.047 -20.88,5.047 13.68,-1.446 26.64,12.234 26.64,12.234 -7.2,2.16 -9.36,7.922 -9.36,7.922 4.32,3.606 7.92,3.606 7.92,3.606 -7.92,3.593 -9.36,9.355 -9.36,9.355 10.08,-4.316 41.04,-5.039 57.61,-5.762 16.55,-0.722 33.11,5.762 33.11,5.762 -1.43,-36.723 -26.64,-39.602 -26.64,-39.602 l 0,0" /><path
         id="path208"
         style="fill:#2252ab;fill-opacity:1;fill-rule:evenodd;stroke:none"
         d="m 1930.32,848.16 c -0.72,-7.922 -2.88,-15.84 -5.75,-21.601 0,0 10.07,7.921 12.23,13.679 2.16,6.489 2.88,10.805 -6.48,7.922 l 0,0" /><path
         id="path210"
         style="fill:#2252ab;fill-opacity:1;fill-rule:evenodd;stroke:none"
         d="m 1954.08,822.242 c 0,2.16 -2.16,4.317 -4.32,4.317 -2.16,0 -4.32,-2.157 -4.32,-4.317 0,-2.156 2.16,-4.316 4.32,-4.316 2.16,0 4.32,2.16 4.32,4.316 l 0,0 z m -6.48,17.996 c 5.04,1.45 17.28,2.883 22.32,-5.039 5.05,-7.195 2.88,-21.597 -7.2,-27.359 0,0 -15.84,12.957 -35.28,0 0,0 -4.32,2.879 -14.4,5.039 0,0 5.76,7.207 12.96,10.086 5.76,2.883 18,6.476 21.6,17.273 l 0,0" /><path
         id="path212"
         style="fill:#2252ab;fill-opacity:1;fill-rule:evenodd;stroke:none"
         d="m 1910.88,809.996 c 0,0 -6.48,-8.633 -11.52,-12.961 0,0 25.21,0 31.68,-22.312 0,0 9.37,13.683 2.88,23.039 -7.2,9.363 -13.68,10.801 -23.04,12.234 l 0,0" /><path
         id="path214"
         style="fill:#2252ab;fill-opacity:1;fill-rule:evenodd;stroke:none"
         d="m 1882.8,804.957 c 0,0 -8.63,-2.883 -10.8,-3.594 0,0 -0.72,5.039 0,7.2 -2.88,-0.723 -5.75,-1.438 -8.64,-1.438 0,0 -7.92,-18.719 -14.4,-25.93 0,0 -0.72,-4.312 2.88,-10.797 0,0 5.04,11.524 12.96,20.165 5.04,5.039 7.92,7.199 18,14.394 l 0,0" /><path
         id="path216"
         style="fill:#2252ab;fill-opacity:1;fill-rule:evenodd;stroke:none"
         d="m 1904.4,808.563 c -2.16,-0.723 -15.84,-5.04 -22.32,-9.36 -7.91,-5.758 -13.68,-12.242 -12.24,-23.758 0,0 6.48,8.633 13.68,12.961 5.76,3.594 15.84,12.235 20.88,20.157 l 0,0" /><path
         id="path218"
         style="fill:#2252ab;fill-opacity:1;fill-rule:evenodd;stroke:none"
         d="m 1904.4,892.801 c -2.16,0 -7.2,-1.438 -7.2,-5.766 0,-3.59 6.48,-12.957 7.92,-17.273 l 0,0 c 1.44,4.316 7.92,13.683 7.92,17.273 0,4.328 -5.04,5.766 -7.2,5.766 l -1.44,0 0,0" /><path
         id="path220"
         style="fill:#2252ab;fill-opacity:1;fill-rule:evenodd;stroke:none"
         d="m 1910.16,861.844 c 0.72,5.761 2.88,20.156 6.49,23.035 3.59,2.883 7.92,3.605 10.79,2.883 2.16,0 4.32,-2.16 3.6,-5.762 -0.72,-2.883 -11.52,-18.723 -12.96,-20.883 -2.88,0 -2.16,0 -7.92,0.727 l 0,0" /><path
         id="path222"
         style="fill:#2252ab;fill-opacity:1;fill-rule:evenodd;stroke:none"
         d="m 1900.08,861.844 c -0.72,5.761 -2.88,20.156 -6.48,23.035 -2.88,2.883 -7.92,3.605 -10.08,2.883 -2.88,0 -5.04,-2.16 -4.32,-5.762 0.72,-2.883 11.52,-18.723 12.96,-20.883 2.88,0 2.16,0 7.92,0.727 l 0,0" /><path
         id="path224"
         style="fill:#2252ab;fill-opacity:1;fill-rule:evenodd;stroke:none"
         d="m 1893.6,911.52 8.64,0 0,9.367 6.49,0 0,-9.367 7.92,0 0,-5.762 -7.92,0 0,-10.801 -6.49,0 0,10.801 -8.64,0 0,5.762" /><path
         id="path226"
         style="fill:#2252ab;fill-opacity:1;fill-rule:evenodd;stroke:none"
         d="m 1793.52,966.238 8.64,0 0,9.364 6.48,0 0,-9.364 8.64,0 0,-5.754 -8.64,0 0,-10.8 -6.48,0 0,10.8 -8.64,0 0,5.754" /><path
         id="path228"
         style="fill:#2252ab;fill-opacity:1;fill-rule:evenodd;stroke:none"
         d="m 1994.4,852.477 c 0,2.168 0,3.601 -0.72,5.761 -0.72,4.328 -0.72,7.918 0,10.801 5.76,-2.156 10.08,-3.594 18,-16.562 0,0 -12.95,7.921 -17.28,0 l 0,0" /><path
         id="path230"
         style="fill:#2252ab;fill-opacity:1;fill-rule:evenodd;stroke:none"
         d="m 1982.89,831.598 c 0,3.601 -2.17,13.683 -5.05,20.879 -3.6,9.367 -1.44,22.324 2.16,30.246 4.32,7.918 6.48,15.117 5.76,23.035 0,0 7.92,-2.879 12.24,-5.762 0.73,-9.355 -5.04,-17.996 -7.19,-23.758 -2.89,-5.754 -2.17,-14.394 -1.45,-18.711 0.72,-8.644 -0.72,-17.289 -6.47,-25.929 l 0,0" /><path
         id="path232"
         style="fill:#2252ab;fill-opacity:1;fill-rule:evenodd;stroke:none"
         d="m 1982.16,902.164 c 0,0.715 0,3.594 -0.72,5.039 0,0 -12.24,11.516 -22.32,13.684 -6.48,1.433 -10.79,-1.446 -12.24,-2.883 0,0 3.6,0 8.64,-4.324 5.76,-4.317 12.24,-9.36 18,-10.801 5.04,-1.438 5.76,-1.438 8.64,-0.715 l 0,0" /><path
         id="path234"
         style="fill:#2252ab;fill-opacity:1;fill-rule:evenodd;stroke:none"
         d="m 1945.44,917.281 c -4.32,-5.039 -7.92,-10.078 -7.92,-13.679 0,-5.039 5.04,-15.84 7.92,-20.157 2.16,-3.605 6.48,-9.367 5.76,-15.84 0,-3.605 -2.87,-7.207 -5.04,-10.078 0,0 14.4,3.59 16.56,12.957 1.45,8.633 -2.16,14.395 -4.32,18.719 -2.15,4.32 -9.36,14.399 -10.8,18.723 -1.44,3.594 -2.16,7.195 -2.16,9.355 l 0,0" /><path
         id="path236"
         style="fill:#2252ab;fill-opacity:1;fill-rule:evenodd;stroke:none"
         d="m 1858.33,812.879 c -2.89,-10.805 -8.65,-20.879 -13.69,-28.801 -4.32,-7.195 -7.2,-18.719 -6.48,-22.312 0,0 -7.2,15.117 -3.59,25.195 2.87,8.641 10.07,20.879 23.76,25.918 l 0,0" /><path
         id="path238"
         style="fill:#2252ab;fill-opacity:1;fill-rule:evenodd;stroke:none"
         d="m 1841.04,809.281 c 0,0 -10.08,0 -15.12,-3.601 -5.76,-3.606 -11.52,-12.957 -14.4,-23.758 0,0 10.8,2.156 15.84,7.195 5.04,5.039 11.52,12.957 13.68,20.164 l 0,0" /><path
         id="path240"
         style="fill:#2252ab;fill-opacity:1;fill-rule:evenodd;stroke:none"
         d="m 1894.32,790.563 c 2.16,0 7.2,-1.446 10.08,-2.157 0,0 -8.64,-2.168 -12.96,-5.761 -4.32,-3.606 -7.2,-7.922 -8.64,-15.84 -2.16,-11.524 -8.63,-23.762 -10.8,-27.364 l -0.72,0 c 1.44,7.918 -3.6,23.758 -5.03,25.918 0,0 7.19,5.039 10.07,9.364 2.16,2.882 6.48,8.64 18,15.84 l 0,0" /><path
         id="path242"
         style="fill:#2252ab;fill-opacity:1;fill-rule:evenodd;stroke:none"
         d="m 1848.96,766.805 c -2.88,-5.762 -9.36,-16.567 -6.47,-27.364 3.59,-10.8 10.79,-15.839 15.11,-24.484 0,0 2.88,16.563 2.16,29.523 -0.72,12.247 -5.04,17.286 -10.8,22.325 l 0,0" /><path
         id="path244"
         style="fill:#2252ab;fill-opacity:1;fill-rule:evenodd;stroke:none"
         d="m 1807.2,736.559 c 0,5.761 15.12,21.601 14.4,29.519 -0.72,8.645 -12.24,14.406 -15.12,15.117 l 0,0 c -2.88,-0.711 -13.68,-6.472 -14.4,-15.117 -0.72,-7.918 13.68,-23.758 14.4,-29.519 l 0.72,0 0,0" /><path
         id="path246"
         style="fill:#2252ab;fill-opacity:1;fill-rule:evenodd;stroke:none"
         d="m 1828.8,766.078 c 0,0 -10.07,-19.441 -11.52,-27.359 -2.16,-7.922 -0.72,-12.961 2.88,-18 3.6,-4.317 9.36,-9.356 15.12,-19.434 0,0 6.48,8.633 7.21,12.957 0.71,4.321 -0.73,15.121 -2.17,19.438 -1.44,4.324 -6.48,18.008 -11.52,32.398 l 0,0" /><path
         id="path248"
         style="fill:#2252ab;fill-opacity:1;fill-rule:evenodd;stroke:none"
         d="m 1806.48,689.762 c 5.04,3.601 9.36,9.355 10.8,12.961 0.72,3.601 1.45,9.351 -1.44,12.957 -4.32,5.039 -8.64,10.078 -9.36,14.406 l 0,0 c 0,-4.328 -5.04,-9.367 -8.64,-14.406 -2.87,-3.606 -2.87,-9.356 -1.44,-12.957 1.44,-2.883 5.76,-9.36 10.08,-12.961 l 0,0" /><path
         id="path250"
         style="fill:#2252ab;fill-opacity:1;fill-rule:evenodd;stroke:none"
         d="m 1823.76,702.723 c 2.16,-2.16 14.4,-16.567 15.84,-20.879 1.44,-4.317 4.32,-12.239 0.72,-17.285 -3.6,-5.754 -12.24,-14.399 -19.44,-18 0,0 7.92,12.246 7.2,23.046 -0.72,6.473 -5.76,12.239 -6.48,15.84 -1.44,4.317 -0.72,10.793 2.16,17.278 l 0,0" /><path
         id="path252"
         style="fill:#2252ab;fill-opacity:1;fill-rule:evenodd;stroke:none"
         d="m 1847.52,710.641 c -2.16,-2.157 -5.03,-8.641 -5.76,-14.403 -0.72,-5.754 0.73,-10.793 3.6,-19.433 4.32,-10.801 10.8,-23.039 13.68,-28.801 0,0 5.76,7.922 8.64,15.117 0,0 -8.64,12.238 -12.24,20.879 -4.32,9.363 -6.48,18.723 -7.92,26.641 l 0,0" /><path
         id="path254"
         style="fill:#2252ab;fill-opacity:1;fill-rule:evenodd;stroke:none"
         d="m 1851.12,715.68 c 0,0 4.32,-28.797 20.88,-49.676 10.8,-13.684 20.16,-18.723 25.92,-18.723 9.36,0 18.73,7.199 21.6,15.84 2.88,9.356 2.16,22.324 -3.6,27.363 0,0 -5.76,-17.285 -17.28,-17.285 -12.96,-0.722 -30.24,13.684 -47.52,42.481 l 0,0" /><path
         id="path256"
         style="fill:#2252ab;fill-opacity:1;fill-rule:evenodd;stroke:none"
         d="m 1864.8,727.203 c -1.44,-5.039 -1.44,-12.961 0,-20.168 1.45,-5.75 5.04,-12.957 11.52,-16.551 5.76,-3.601 18.72,-4.328 23.76,7.922 0,0 -24.48,-1.445 -35.28,28.797 l 0,0" /><path
         id="path258"
         style="fill:#2252ab;fill-opacity:1;fill-rule:evenodd;stroke:none"
         d="m 1806.48,643.68 c 3.6,1.445 6.48,2.879 10.8,8.64 2.88,5.039 5.76,13.684 4.32,19.446 -2.16,7.918 -6.48,10.8 -8.64,15.839 -2.15,-2.16 -3.6,-3.605 -6.48,-5.039 l 0,0 c -2.16,1.434 -3.59,2.879 -5.76,5.039 -2.16,-5.039 -6.48,-7.921 -8.64,-15.839 -1.44,-5.762 1.44,-14.407 4.32,-19.446 4.32,-5.761 7.2,-7.195 10.08,-8.64 l 0,0" /><path
         id="path260"
         style="fill:#2252ab;fill-opacity:1;fill-rule:evenodd;stroke:none"
         d="m 1806.48,596.156 c 2.16,7.207 17.28,21.606 15.84,29.524 -2.16,11.523 -9.36,9.367 -15.84,14.406 l 0,0 c -5.76,-5.039 -13.68,-2.883 -15.84,-14.406 -1.44,-7.918 14.4,-22.317 15.84,-29.524 l 0,0" /><path
         id="path262"
         style="fill:#2252ab;fill-opacity:1;fill-rule:evenodd;stroke:none"
         d="m 1825.2,613.445 c -2.88,-8.644 -15.12,-19.445 -15.12,-25.918 0.73,-17.281 7.92,-28.082 10.08,-33.843 0,0 13.68,10.8 16.56,23.75 1.44,6.488 0,26.644 -11.52,36.011 l 0,0" /><path
         id="path264"
         style="fill:#2252ab;fill-opacity:1;fill-rule:evenodd;stroke:none"
         d="m 1841.04,601.195 c -1.44,4.328 -6.47,16.567 -12.96,20.879 0,0 -7.2,23.051 17.28,36.731 0,0 10.08,-13.68 12.97,-25.926 2.15,-12.961 -10.81,-20.156 -17.29,-31.684 l 0,0" /><path
         id="path266"
         style="fill:#2252ab;fill-opacity:1;fill-rule:evenodd;stroke:none"
         d="m 1872,658.082 c 3.6,-5.039 9.36,-11.523 13.68,-13.68 0,0 1.44,-10.082 0.72,-16.562 -1.43,-10.078 -7.92,-20.156 -10.08,-27.356 0,0 -10.8,13.672 -12.24,22.317 -1.44,7.918 -0.72,15.125 -1.44,18.719 0,0 5.76,10.078 9.36,16.562 l 0,0" /><path
         id="path268"
         style="fill:#2252ab;fill-opacity:1;fill-rule:evenodd;stroke:none"
         d="m 1900.08,609.84 c 2.88,4.316 12.96,21.601 12.96,33.84 0,0 -11.52,-6.477 -22.32,-1.438 0,0 -0.72,-16.562 0.72,-21.601 2.16,-4.317 3.6,-7.196 8.64,-10.801 l 0,0" /><path
         id="path270"
         style="fill:#2252ab;fill-opacity:1;fill-rule:evenodd;stroke:none"
         d="m 1897.2,606.238 c -1.44,1.446 -6.48,6.485 -8.64,8.641 0,0 -7.92,-15.117 -9.36,-19.434 0,0 4.32,-0.722 8.64,2.16 4.32,3.59 5.05,4.317 9.36,8.633 l 0,0" /><path
         id="path272"
         style="fill:#2252ab;fill-opacity:1;fill-rule:evenodd;stroke:none"
         d="m 1860.48,614.879 c 0.72,-3.594 13.69,-21.602 15.84,-23.762 0,0 -0.72,-6.472 -5.76,-16.554 -5.04,-9.356 -11.52,-15.84 -15.12,-18.711 0,0 -7.92,13.671 -10.08,20.156 -2.87,6.469 -2.87,13.676 -1.44,16.558 2.88,5.75 12.24,14.395 16.56,22.313 l 0,0" /><path
         id="path274"
         style="fill:#2252ab;fill-opacity:1;fill-rule:evenodd;stroke:none"
         d="m 1806.48,507.609 c 1.44,5.039 9.36,10.801 12.25,19.434 2.15,5.039 1.43,11.523 0,15.125 -2.89,5.039 -10.81,16.555 -12.25,20.156 l 0,0 c -0.72,-3.601 -9.36,-15.117 -11.51,-20.156 -2.17,-3.602 -2.17,-10.086 0,-15.125 2.87,-8.633 10.07,-14.395 11.51,-19.434 l 0,0" /><path
         id="path276"
         style="fill:#2252ab;fill-opacity:1;fill-rule:evenodd;stroke:none"
         d="m 1840.32,567.363 c -2.88,-5.761 -11.52,-15.117 -12.24,-23.035 -1.43,-5.762 -0.72,-10.078 1.44,-14.406 1.44,-4.317 6.48,-12.234 10.08,-17.996 0,0 11.52,10.801 14.4,18.719 2.16,6.484 1.44,15.117 -1.44,20.156 -2.88,5.051 -9.36,11.523 -12.24,16.562 l 0,0" /><path
         id="path278"
         style="fill:#2252ab;fill-opacity:1;fill-rule:evenodd;stroke:none"
         d="m 1874.17,569.523 c -2.89,-7.199 -10.09,-13.671 -12.25,-19.433 -1.44,-7.207 -2.16,-11.524 0.72,-19.445 2.88,-7.196 6.48,-11.524 7.92,-15.84 0,0 10.08,12.238 11.52,18 1.44,5.039 2.16,13.679 0,18.718 -2.16,5.762 -5.76,12.961 -7.91,18 l 0,0" /><path
         id="path280"
         style="fill:#2252ab;fill-opacity:1;fill-rule:evenodd;stroke:none"
         d="m 1806.48,411.848 c 0.72,6.472 13.68,25.195 14.4,45.359 0,10.078 -8.64,25.918 -14.4,31.68 l 0,0 c -5.04,-5.762 -13.68,-21.602 -13.68,-31.68 0.72,-20.164 12.96,-38.887 13.68,-45.359 l 0,0" /><path
         id="path282"
         style="fill:#2252ab;fill-opacity:1;fill-rule:evenodd;stroke:none"
         d="m 1826.65,521.289 c 0,0 16.55,-19.441 16.55,-30.242 -0.71,-13.684 -9.36,-22.324 -10.8,-30.246 0,0 -8.64,10.09 -12.24,16.562 -3.6,7.2 -6.48,13.684 -5.04,22.325 0.72,7.921 2.88,13.683 11.53,21.601 l 0,0" /><path
         id="path284"
         style="fill:#2252ab;fill-opacity:1;fill-rule:evenodd;stroke:none"
         d="m 1857.6,523.449 c -2.88,-3.605 -10.08,-16.562 -7.92,-24.484 2.16,-7.918 10.08,-18.719 12.96,-23.758 0,0 6.48,13.68 7.92,19.441 1.44,6.477 0,16.555 -12.96,28.801 l 0,0" /><path
         id="path286"
         style="fill:#2252ab;fill-opacity:1;fill-rule:evenodd;stroke:none"
         d="m 1818,380.168 c 1.44,15.117 10.08,24.48 11.52,32.402 1.44,9.356 1.44,17.996 -5.76,28.075 -5.76,-19.442 -11.52,-33.114 -16.56,-43.204 0,0 -0.72,0 -0.72,-0.711 0,0.711 0,0.711 0,0.711 -5.04,10.09 -10.8,23.762 -16.56,43.204 -7.2,-10.079 -7.92,-18.719 -5.75,-28.075 1.43,-7.922 10.07,-17.285 11.51,-32.402 0.72,-15.84 -17.28,-21.602 -17.28,-21.602 6.48,-2.16 12.96,-3.605 23.76,6.485 2.16,2.156 3.6,4.316 4.32,6.472 1.44,-2.156 2.88,-4.316 5.04,-6.472 10.8,-10.09 17.28,-8.645 23.05,-6.485 0,0 -17.29,5.762 -16.57,21.602 l 0,0" /><path
         id="path288"
         style="fill:#2252ab;fill-opacity:1;fill-rule:evenodd;stroke:none"
         d="m 1762.56,483.848 c 2.16,-5.762 7.2,-16.563 7.92,-20.164 1.44,-6.477 0,-13.684 -11.52,-21.602 0,0 -7.2,5.047 -10.08,11.523 -2.88,6.485 -1.44,10.801 1.44,14.403 2.88,2.883 9.36,10.801 12.24,15.84 l 0,0" /><path
         id="path290"
         style="fill:#2252ab;fill-opacity:1;fill-rule:evenodd;stroke:none"
         d="m 1786.32,460.801 c 0,-3.594 -2.15,-20.879 -7.2,-29.512 -7.2,-12.969 -17.28,-21.601 -26.63,-21.601 -7.92,0 -10.09,5.039 -14.41,6.476 0,0 2.16,10.801 11.52,13.68 12.24,3.605 29.52,17.285 36.72,30.957 l 0,0" /><path
         id="path292"
         style="fill:#2252ab;fill-opacity:1;fill-rule:evenodd;stroke:none"
         d="m 1756.08,437.766 c -2.16,1.445 -3.59,2.879 -5.76,5.761 0,0 -9.36,-3.605 -16.56,-8.644 -7.2,-5.039 -14.4,-13.68 -18,-17.996 0,0 10.8,-2.883 18,0.722 0,0 2.16,10.079 10.08,15.118 1.44,0.722 7.2,2.878 12.24,5.039 l 0,0" /><path
         id="path294"
         style="fill:#2252ab;fill-opacity:1;fill-rule:evenodd;stroke:none"
         d="m 1746.72,447.129 c -1.44,2.871 -5.04,7.199 -4.32,15.117 0,0 -15.12,-10.078 -20.16,-13.68 -4.32,-3.605 -14.4,-13.683 -16.56,-17.277 0,0 12.24,2.871 20.88,5.754 10.09,3.602 16.56,7.918 20.16,10.086 l 0,0" /><path
         id="path296"
         style="fill:#2252ab;fill-opacity:1;fill-rule:evenodd;stroke:none"
         d="m 1720.81,430.566 c -8.65,-3.601 -27.37,-6.484 -35.29,-8.64 -7.92,-2.16 -12.96,-6.477 -20.88,-14.395 0,0 11.52,-3.605 18,-5.761 0,0 9.36,7.195 20.16,11.511 7.2,2.168 10.8,9.367 18.01,17.285 l 0,0" /><path
         id="path298"
         style="fill:#2252ab;fill-opacity:1;fill-rule:evenodd;stroke:none"
         d="m 1703.52,375.129 c 1.45,1.434 3.6,4.316 2.16,8.641 -1.44,3.593 -7.92,7.199 -12.24,9.355 -6.48,2.883 -25.2,7.922 -31.68,10.078 0,0 -2.88,-3.594 -4.32,-7.918 -0.72,-1.437 0,-2.883 2.88,-2.883 5.04,-1.433 17.28,1.446 20.88,-0.711 2.88,-2.168 2.16,-5.05 2.16,-7.921 0,0 5.76,3.593 9.36,2.871 5.04,-1.434 7.92,-3.594 10.8,-11.512 l 0,0" /><path
         id="path300"
         style="fill:#2252ab;fill-opacity:1;fill-rule:evenodd;stroke:none"
         d="m 1686.96,401.047 c 0.72,-0.723 8.64,-2.883 15.12,-7.199 0,0 3.6,0.715 5.04,3.593 1.44,2.883 7.92,12.247 13.69,13.684 0,0 -5.05,0.723 -7.92,1.445 0,0 -5.77,-1.445 -10.09,-3.605 -4.32,-1.434 -10.08,-4.317 -15.84,-7.918 l 0,0" /><path
         id="path302"
         style="fill:#2252ab;fill-opacity:1;fill-rule:evenodd;stroke:none"
         d="m 1735.2,412.57 c -1.44,-0.722 -3.6,-1.445 -7.92,-1.445 0,0 -16.56,-11.516 -18,-23.039 -1.44,-9.363 3.61,-14.402 5.76,-15.117 2.16,-1.446 13.69,-6.485 21.61,9.355 0,0 -12.97,-4.316 -16.57,1.446 -2.88,6.476 2.16,15.117 5.76,18 4.32,3.593 12.96,5.761 18,5.039 0,0 -4.32,3.593 -8.64,5.761 l 0,0" /><path
         id="path304"
         style="fill:#2252ab;fill-opacity:1;fill-rule:evenodd;stroke:none"
         d="m 1627.2,282.246 c 2.16,8.645 4.32,17.277 7.92,25.195 7.92,15.84 25.92,57.61 64.08,64.805 3.6,0.723 -4.32,10.078 -7.92,9.356 -3.6,-0.711 -10.08,-5.039 -12.95,-6.473 0,0 0,8.641 0,10.078 0,1.434 -1.45,2.156 -2.89,2.156 -1.44,0 -10.8,0 -13.68,-2.879 -8.64,-10.078 -23.76,-37.441 -31.68,-57.597 -8.64,-19.446 -13.68,-25.918 -23.04,-23.039 -8.64,3.593 -13.68,12.961 -28.8,10.078 -5.04,-0.723 -11.52,-4.317 -15.84,-9.363 1.44,-2.872 2.88,-5.754 10.09,-5.754 7.19,0 20.87,-2.879 28.07,-7.918 7.92,-5.762 15.84,-7.207 26.64,-8.645 l 0,0" /><path
         id="path306"
         style="fill:#2252ab;fill-opacity:1;fill-rule:evenodd;stroke:none"
         d="m 1779.12,411.848 c 0.72,-6.485 3.6,-12.239 7.2,-18.723 0,0 -11.52,-53.281 -53.28,-57.598 0,0 0.72,11.516 12.96,19.434 12.24,8.644 30.96,21.602 29.52,41.769 0,0 -2.88,-0.722 -9.36,-7.921 -5.75,-7.918 -18.72,-29.52 -38.88,-29.52 0,0 2.88,10.078 12.24,15.84 8.64,5.762 20.16,13.68 25.2,22.312 5.04,8.645 10.8,12.961 14.4,14.407 l 0,0" /><path
         id="path308"
         style="fill:#2252ab;fill-opacity:1;fill-rule:evenodd;stroke:none"
         d="m 1758.96,217.441 25.92,-35.273 18.72,34.562 -6.48,12.235 c -5.04,-9.356 -10.8,-18.719 -13.68,-24.481 -2.16,3.602 -8.64,12.246 -17.28,24.481 l -7.2,-11.524 0,0" /><path
         id="path310"
         style="fill:#2252ab;fill-opacity:1;fill-rule:evenodd;stroke:none"
         d="m 1752.49,247.688 c -24.49,35.281 -55.45,77.761 -58.32,82.078 l 9.35,7.199 -30.24,11.523 0.72,-33.125 10.08,7.207 61.2,-85.683 7.21,10.801 0,0" /><path
         id="path312"
         style="fill:#2252ab;fill-opacity:1;fill-rule:evenodd;stroke:none"
         d="m 1543.68,442.805 c 7.2,8.64 20.16,1.445 32.4,-10.801 12.96,-11.516 21.6,-23.762 13.68,-31.68 -6.48,-7.922 -20.16,-1.437 -33.11,10.801 -12.97,11.523 -20.89,23.758 -12.97,31.68 l 0,0" /><path
         id="path314"
         style="fill:#2252ab;fill-opacity:1;fill-rule:evenodd;stroke:none"
         d="m 1563.84,298.086 -0.72,0.723 c -7.2,6.476 -10.8,15.117 -10.8,25.195 0,19.445 15.84,35.285 34.56,35.285 19.44,0 35.28,-15.84 35.28,-35.285 0,-2.156 -0.72,-6.473 -0.72,-6.473 1.45,2.871 7.2,15.84 8.64,18.711 -5.04,18.719 -22.32,32.403 -43.2,32.403 -17.28,0 -32.4,-10.079 -39.6,-25.196 2.88,17.996 11.52,33.836 17.29,39.598 7.92,7.199 20.15,9.355 20.15,9.355 -7.92,-1.433 -18.72,3.606 -30.96,15.129 -12.24,10.789 -18,19.434 -18,27.352 0.72,-10.801 0,-17.274 -2.87,-25.918 -4.33,-12.235 -15.85,-34.559 -11.53,-59.754 2.16,-14.406 12.24,-35.285 28.8,-51.848 3.6,-3.593 5.04,-9.355 5.76,-12.234 0,0 24.49,0 30.96,-0.723 0,0 5.76,0.723 5.76,4.317 0,3.601 -3.6,4.324 -6.48,4.324 -2.88,0 -15.12,0 -22.32,5.039 l 0,0" /><path
         id="path316"
         style="fill:#2252ab;fill-opacity:1;fill-rule:evenodd;stroke:none"
         d="m 1702.08,289.445 c -16.56,-5.761 -32.4,-8.644 -47.51,-11.515 -9.37,-1.446 -19.45,-1.446 -28.81,-1.446 0,-1.433 0,-3.601 -0.72,-5.039 0,0 2.16,-2.156 2.16,-4.316 9.36,-0.723 18.72,0 28.8,1.437 16.56,2.879 33.84,6.485 51.84,12.957 l -5.76,7.922 0,0" /><path
         id="path318"
         style="fill:#2252ab;fill-opacity:1;fill-rule:evenodd;stroke:none"
         d="m 1728,290.891 c 21.6,11.511 42.48,29.511 61.2,57.597 l 2.88,5.762 c -5.04,-2.168 -11.52,-0.723 -11.52,-0.723 0,0 -1.44,-1.445 -1.44,-2.16 -17.28,-25.918 -36.72,-41.758 -56.88,-52.558 l 5.76,-7.918 0,0" /><path
         id="path320"
         style="fill:#2252ab;fill-opacity:1;fill-rule:evenodd;stroke:none"
         d="m 1588.33,281.523 c -3.61,0.723 -12.25,0 -18.01,-0.722 -6.48,-0.711 -12.96,-2.156 -13.67,-5.75 -0.73,-2.883 1.43,-6.485 4.31,-11.524 2.16,-2.882 6.48,-0.722 8.64,0 2.89,0.723 17.28,8.641 19.44,11.524 2.16,2.156 3.6,5.75 -0.71,6.472 l 0,0" /><path
         id="path322"
         style="fill:#2252ab;fill-opacity:1;fill-rule:evenodd;stroke:none"
         d="m 1602.72,272.168 c -1.44,0.715 -5.04,2.16 -9.36,0.715 -3.6,-1.438 -18,-9.356 -18.72,-13.672 -1.44,-3.606 0.72,-5.762 2.88,-6.484 2.16,-0.723 5.04,-2.161 7.2,-2.161 3.61,0 6.48,2.161 8.64,4.317 1.44,2.16 8.64,10.078 9.36,11.523 0.72,2.16 1.45,5.039 0,5.762 l 0,0" /><path
         id="path324"
         style="fill:#2252ab;fill-opacity:1;fill-rule:evenodd;stroke:none"
         d="m 1604.17,263.527 c -2.17,-2.882 -7.21,-9.367 -7.92,-10.8 -0.73,-0.723 0,-2.883 2.15,-2.883 1.44,0.722 11.52,1.445 16.57,5.039 5.75,4.328 9.35,11.523 5.75,14.406 -3.6,2.156 -10.08,1.434 -16.55,-5.762 l 0,0" /><path
         id="path326"
         style="fill:#2252ab;fill-opacity:1;fill-rule:evenodd;stroke:none"
         d="m 1607.76,284.406 c -2.16,0.723 -9.36,2.157 -10.8,0 -2.16,-2.883 -0.71,-6.476 5.04,-9.355 5.76,-2.168 16.56,-4.328 18.72,-1.446 2.17,2.879 -0.72,7.918 -12.96,10.801 l 0,0" /><path
         id="path328"
         style="fill:#2252ab;fill-opacity:1;fill-rule:evenodd;stroke:none"
         d="m 1850.41,483.848 c -1.45,-5.762 -7.21,-16.563 -7.92,-20.164 -1.45,-6.477 0.71,-13.684 11.51,-21.602 0,0 7.92,5.047 10.8,11.523 2.16,6.485 0.72,10.801 -2.16,14.403 -2.88,2.883 -9.36,10.801 -12.23,15.84 l 0,0" /><path
         id="path330"
         style="fill:#2252ab;fill-opacity:1;fill-rule:evenodd;stroke:none"
         d="m 1826.65,460.801 c 0,-3.594 2.87,-20.879 7.92,-29.512 6.47,-12.969 17.27,-21.601 25.91,-21.601 8.64,0 10.08,5.039 14.4,6.476 0,0 -2.16,10.801 -11.52,13.68 -11.52,3.605 -29.52,17.285 -36.71,30.957 l 0,0" /><path
         id="path332"
         style="fill:#2252ab;fill-opacity:1;fill-rule:evenodd;stroke:none"
         d="m 1856.88,437.766 c 2.16,1.445 3.6,2.879 6.48,5.761 0,0 8.64,-3.605 15.84,-8.644 7.92,-5.039 15.12,-13.68 18.72,-17.996 0,0 -10.8,-2.883 -18,0.722 0,0 -2.88,10.079 -10.08,15.118 -2.16,0.722 -7.92,2.878 -12.96,5.039 l 0,0" /><path
         id="path334"
         style="fill:#2252ab;fill-opacity:1;fill-rule:evenodd;stroke:none"
         d="m 1866.25,447.129 c 2.15,2.871 5.03,7.199 4.31,15.117 0,0 15.84,-10.078 20.16,-13.68 5.04,-3.605 14.4,-13.683 16.56,-17.277 0,0 -11.52,2.871 -20.88,5.754 -9.36,3.602 -16.56,7.918 -20.15,10.086 l 0,0" /><path
         id="path336"
         style="fill:#2252ab;fill-opacity:1;fill-rule:evenodd;stroke:none"
         d="m 1892.89,430.566 c 7.92,-3.601 26.63,-6.484 34.55,-8.64 7.92,-2.16 13.68,-6.477 21.6,-14.395 0,0 -12.24,-3.605 -18,-5.761 0,0 -10.08,7.195 -20.88,11.511 -6.48,2.168 -10.08,9.367 -17.27,17.285 l 0,0" /><path
         id="path338"
         style="fill:#2252ab;fill-opacity:1;fill-rule:evenodd;stroke:none"
         d="m 1910.16,375.129 c -2.16,1.434 -4.32,4.316 -2.16,8.641 0.73,3.593 7.92,7.199 12.24,9.355 6.48,2.883 25.2,7.922 30.96,10.078 0,0 3.6,-3.594 5.05,-7.918 0.71,-1.437 -0.73,-2.883 -2.89,-2.883 -5.03,-1.433 -18,1.446 -20.87,-0.711 -3.61,-2.168 -2.17,-5.05 -2.17,-7.921 0,0 -5.75,3.593 -9.36,2.871 -5.04,-1.434 -7.92,-3.594 -10.8,-11.512 l 0,0" /><path
         id="path340"
         style="fill:#2252ab;fill-opacity:1;fill-rule:evenodd;stroke:none"
         d="m 1926.72,401.047 c -1.44,-0.723 -8.64,-2.883 -15.84,-7.199 0,0 -2.88,0.715 -4.32,3.593 -1.44,2.883 -7.92,12.247 -13.67,13.684 0,0 4.31,0.723 7.19,1.445 0,0 6.48,-1.445 10.8,-3.605 4.32,-1.434 9.36,-4.317 15.84,-7.918 l 0,0" /><path
         id="path342"
         style="fill:#2252ab;fill-opacity:1;fill-rule:evenodd;stroke:none"
         d="m 1878.48,412.57 c 1.44,-0.722 2.88,-1.445 7.2,-1.445 0,0 16.56,-11.516 18.72,-23.039 1.44,-9.363 -3.59,-14.402 -5.76,-15.117 -2.88,-1.446 -14.4,-6.485 -21.6,9.355 0,0 12.24,-4.316 15.85,1.446 3.59,6.476 -2.17,15.117 -5.77,18 -4.32,3.593 -12.24,5.761 -17.28,5.039 0,0 3.6,3.593 8.64,5.761 l 0,0" /><path
         id="path344"
         style="fill:#2252ab;fill-opacity:1;fill-rule:evenodd;stroke:none"
         d="m 1986.48,282.246 c -2.16,8.645 -4.32,17.277 -8.64,25.195 -7.2,15.84 -25.2,57.61 -63.36,64.805 -3.6,0.723 4.32,10.078 7.2,9.356 3.6,-0.711 10.81,-5.039 13.68,-6.473 0,0 0,8.641 0,10.078 0,1.434 1.44,2.156 2.88,2.156 1.44,0 10.8,0 13.68,-2.879 8.64,-10.078 23.05,-37.441 31.68,-57.597 7.92,-19.446 13.68,-25.918 22.32,-23.039 8.65,3.593 14.4,12.961 29.52,10.078 5.04,-0.723 10.81,-4.317 15.84,-9.363 -1.44,-2.872 -2.88,-5.754 -10.08,-5.754 -7.2,0 -20.88,-2.879 -28.8,-7.918 -7.2,-5.762 -15.12,-7.207 -25.92,-8.645 l 0,0" /><path
         id="path346"
         style="fill:#2252ab;fill-opacity:1;fill-rule:evenodd;stroke:none"
         d="m 1834.57,411.848 c -0.73,-6.485 -4.33,-12.239 -7.21,-18.723 0,0 11.52,-53.281 53.28,-57.598 0,0 -0.72,11.516 -13.68,19.434 -12.24,8.644 -30.96,21.602 -29.52,41.769 0,0 3.6,-0.722 9.36,-7.921 5.76,-7.918 19.45,-29.52 39.6,-29.52 0,0 -3.6,10.078 -12.23,15.84 -8.65,5.762 -20.17,13.68 -25.21,22.312 -5.04,8.645 -10.8,12.961 -14.39,14.407 l 0,0" /><path
         id="path348"
         style="fill:#2252ab;fill-opacity:1;fill-rule:evenodd;stroke:none"
         d="m 1806.48,360.723 c 2.88,-7.196 18.72,-29.52 25.2,-35.996 7.2,-6.485 23.76,-23.036 33.12,-31.68 0,0 -25.92,6.476 -40.32,19.433 0,0 -10.08,-5.75 -17.28,-5.75 l -0.72,0 c -7.2,0 -18,5.75 -18,5.75 -14.4,-12.957 -39.6,-19.433 -39.6,-19.433 8.64,8.644 25.92,25.195 32.4,31.68 7.2,6.476 23.04,28.8 25.2,35.996 l 0,0" /><path
         id="path350"
         style="fill:#2252ab;fill-opacity:1;fill-rule:evenodd;stroke:none"
         d="m 1807.2,300.969 c 5.04,0 10.8,2.156 13.68,3.594 -2.88,-6.477 -8.64,-15.84 -14.4,-20.157 l 0,0 c -5.04,4.317 -10.8,13.68 -13.68,20.157 2.88,-1.438 7.92,-3.594 13.68,-3.594 l 0.72,0 0,0" /><path
         id="path352"
         style="fill:#2252ab;fill-opacity:1;fill-rule:evenodd;stroke:none"
         d="m 1828.8,182.168 100.08,140.402 10.8,-7.207 0,33.125 -30.24,-11.523 10.08,-7.199 c -5.04,-6.485 -79.92,-111.602 -90,-125.282 l -45.35,82.801 -5.05,-8.64 -41.04,-61.204 -10.08,6.485 0,-32.403 30.96,12.247 -10.8,6.476 c 5.76,8.641 28.09,41.758 35.28,53.281 l 45.36,-81.359 0,0" /><path
         id="path354"
         style="fill:#2252ab;fill-opacity:1;fill-rule:evenodd;stroke:none"
         d="m 1846.8,237.609 c -6.48,10.079 -12.96,20.157 -16.56,25.918 -2.88,-5.039 -7.92,-14.406 -13.68,-24.484 l -7.2,12.961 19.44,35.281 5.77,-8.64 20.15,-30.235 -7.92,-10.801 0,0" /><path
         id="path356"
         style="fill:#2252ab;fill-opacity:1;fill-rule:evenodd;stroke:none"
         d="m 1867.68,228.242 7.2,-10.801 10.09,6.485 0.71,-32.403 -30.96,12.247 10.08,6.476 c -0.72,2.156 -2.88,4.317 -4.32,7.195 l 7.2,10.801 0,0" /><path
         id="path358"
         style="fill:#2252ab;fill-opacity:1;fill-rule:evenodd;stroke:none"
         d="m 2070,442.805 c -7.2,8.64 -20.16,1.445 -33.12,-10.801 -12.96,-11.516 -20.88,-23.762 -13.68,-31.68 7.21,-7.922 20.88,-1.437 33.12,10.801 12.96,11.523 20.88,23.758 13.68,31.68 l 0,0" /><path
         id="path360"
         style="fill:#2252ab;fill-opacity:1;fill-rule:evenodd;stroke:none"
         d="m 2049.12,298.086 c 0.72,0 0.72,0.723 1.44,0.723 6.48,6.476 10.8,15.117 10.8,25.195 0,19.445 -15.84,35.285 -35.28,35.285 -19.43,0 -34.56,-15.84 -34.56,-35.285 0,-2.156 0,-6.473 0,-6.473 -1.44,2.871 -7.2,15.84 -7.92,18.711 5.04,18.719 22.32,32.403 42.48,32.403 18,0 33.12,-10.079 40.32,-25.196 -2.88,17.996 -11.52,33.836 -18,39.598 -7.2,7.199 -20.16,9.355 -20.16,9.355 8.64,-1.433 19.44,3.606 31.68,15.129 11.52,10.789 17.28,19.434 18,27.352 -0.72,-10.801 -0.72,-17.274 2.89,-25.918 4.31,-12.235 15.84,-34.559 11.51,-59.754 -2.16,-14.406 -12.24,-35.285 -29.52,-51.848 -3.6,-3.593 -5.04,-9.355 -5.04,-12.234 0,0 -25.2,0 -30.96,-0.723 0,0 -5.76,0.723 -5.76,4.317 0,3.601 3.6,4.324 6.48,4.324 2.89,0 15.12,0 21.6,5.039 l 0,0" /><path
         id="path362"
         style="fill:#2252ab;fill-opacity:1;fill-rule:evenodd;stroke:none"
         d="m 1884.97,290.891 c -20.89,11.511 -41.77,29.511 -60.49,57.597 l -3.6,5.762 c 5.04,-2.168 12.24,-0.723 12.24,-0.723 0,0 0.72,-1.445 1.45,-2.16 17.27,-25.918 36.71,-41.758 56.15,-52.558 l -5.75,-7.918 0,0" /><path
         id="path364"
         style="fill:#2252ab;fill-opacity:1;fill-rule:evenodd;stroke:none"
         d="m 1911.6,289.445 c 15.84,-5.761 31.68,-8.644 46.8,-11.515 10.08,-1.446 20.16,-1.446 28.8,-1.446 0,-1.433 0,-3.601 0.72,-5.039 0,0 -1.44,-2.156 -1.44,-4.316 -9.36,-0.723 -19.44,0 -29.52,1.437 -16.55,2.879 -33.84,6.485 -51.12,12.957 l 5.76,7.922 0,0" /><path
         id="path366"
         style="fill:#2252ab;fill-opacity:1;fill-rule:evenodd;stroke:none"
         d="m 2025.36,281.523 c 2.88,0.723 12.24,0 18,-0.722 5.76,-0.711 12.96,-2.156 13.68,-5.75 0.72,-2.883 -1.44,-6.485 -4.32,-11.524 -2.16,-2.882 -6.47,-0.722 -9.36,0 -2.16,0.723 -16.56,8.641 -19.44,11.524 -2.16,2.156 -2.88,5.75 1.44,6.472 l 0,0" /><path
         id="path368"
         style="fill:#2252ab;fill-opacity:1;fill-rule:evenodd;stroke:none"
         d="m 2010.96,272.168 c 1.44,0.715 5.04,2.16 8.64,0.715 4.32,-1.438 18.73,-9.356 19.44,-13.672 0.72,-3.606 -1.44,-5.762 -3.6,-6.484 -2.16,-0.723 -4.32,-2.161 -6.48,-2.161 -3.6,0 -7.2,2.161 -8.64,4.317 -2.16,2.16 -8.64,10.078 -9.36,11.523 -1.44,2.16 -1.44,5.039 0,5.762 l 0,0" /><path
         id="path370"
         style="fill:#2252ab;fill-opacity:1;fill-rule:evenodd;stroke:none"
         d="m 2008.8,263.527 c 2.16,-2.882 7.92,-9.367 8.64,-10.8 0.72,-0.723 0,-2.883 -2.16,-2.883 -1.44,0.722 -11.52,1.445 -17.28,5.039 -5.04,4.328 -9.36,11.523 -5.04,14.406 3.6,2.156 9.36,1.434 15.84,-5.762 l 0,0" /><path
         id="path372"
         style="fill:#2252ab;fill-opacity:1;fill-rule:evenodd;stroke:none"
         d="m 2005.92,284.406 c 1.44,0.723 9.36,2.157 10.8,0 2.16,-2.883 0.72,-6.476 -5.04,-9.355 -5.76,-2.168 -16.56,-4.328 -18.72,-1.446 -2.15,2.879 0.72,7.918 12.96,10.801 l 0,0" /></g></g></svg>